<svg
  id="svg"
  xmlns="http://www.w3.org/2000/svg"
  xmlns:xlink="http://www.w3.org/1999/xlink"
  width="400"
  height="221.97802197802199"
  viewBox="0, 0, 400,221.97802197802199"
  version="1.1"
><g id="svgg"><path
      id="path0"
      d="M161.095 41.630 C 159.754 42.221,159.810 41.521,159.689 59.310 C 159.544 80.671,159.961 79.953,152.761 71.241 C 148.472 66.051,148.056 65.653,146.563 65.315 C 145.662 65.112,105.461 65.268,70.048 65.613 C 54.570 65.764,55.095 65.512,58.929 70.961 C 64.325 78.629,65.235 79.831,66.059 80.377 L 66.932 80.955 103.521 80.955 L 140.110 80.955 140.738 81.419 C 141.973 82.332,157.880 101.323,158.912 103.117 L 159.578 104.275 159.714 117.046 C 159.869 131.652,160.124 135.241,161.488 142.032 C 165.346 161.246,175.910 172.791,193.781 177.327 C 204.885 180.144,220.658 179.504,231.822 175.783 C 247.960 170.403,258.861 155.674,261.074 136.258 C 261.395 133.443,261.907 129.259,262.216 126.922 C 262.281 126.429,262.402 120.932,262.483 114.706 L 262.632 103.387 263.196 102.387 C 263.506 101.838,265.655 99.149,267.971 96.413 C 272.510 91.051,276.557 86.254,278.978 83.366 C 280.591 81.441,281.589 80.684,282.912 80.382 C 283.363 80.279,297.923 80.141,315.269 80.075 C 361.137 79.901,356.353 80.315,359.013 76.296 C 366.141 65.525,366.226 65.355,364.850 64.589 C 364.326 64.297,326.687 64.306,291.505 64.606 C 272.793 64.765,274.458 64.544,272.366 67.151 C 268.396 72.100,264.764 76.024,263.921 76.277 C 262.632 76.665,262.643 76.796,262.521 59.088 C 262.401 41.678,262.453 42.372,261.221 41.712 C 260.804 41.489,258.973 41.421,253.386 41.421 L 246.096 41.421 245.480 42.037 L 244.864 42.653 244.753 66.246 C 244.633 91.805,244.704 90.524,243.373 91.086 C 242.333 91.525,179.932 91.548,178.894 91.110 C 177.487 90.515,177.579 92.097,177.457 66.246 L 177.346 42.653 176.730 42.037 L 176.115 41.421 168.957 41.370 C 163.218 41.329,161.659 41.380,161.095 41.630 M294.126 85.497 C 293.113 85.957,292.488 86.722,289.555 91.091 C 287.521 94.119,287.249 94.828,287.837 95.554 L 288.245 96.058 316.305 96.119 C 347.310 96.186,345.443 96.268,346.848 94.778 C 347.450 94.139,348.739 92.192,351.062 88.408 C 352.030 86.833,352.058 85.873,351.149 85.403 C 350.017 84.817,295.425 84.907,294.126 85.497 M72.451 86.647 C 70.750 87.138,70.935 87.828,73.932 92.165 C 76.323 95.625,77.558 96.934,78.734 97.256 C 79.945 97.587,136.341 97.599,137.532 97.268 C 139.071 96.841,139.171 95.920,137.942 93.529 C 135.422 88.629,134.430 87.158,133.337 86.701 C 132.452 86.332,73.727 86.279,72.451 86.647 M283.544 101.157 C 282.480 101.536,281.801 102.158,280.747 103.720 C 280.293 104.392,279.306 105.791,278.553 106.830 C 276.216 110.053,276.029 111.488,277.899 111.826 C 278.297 111.897,291.216 111.927,306.607 111.891 C 339.748 111.815,335.397 112.384,338.533 107.718 C 341.731 102.960,342.142 101.912,341.094 101.179 C 340.395 100.688,284.916 100.667,283.544 101.157 M100.611 101.491 C 82.375 101.616,82.214 101.625,82.151 102.562 C 82.073 103.724,82.062 103.704,85.096 107.958 C 87.458 111.271,88.465 112.294,89.557 112.491 C 91.651 112.869,145.823 112.496,146.428 112.099 C 147.633 111.310,147.178 110.030,143.388 103.538 C 141.959 101.089,144.157 101.194,100.611 101.491 M236.542 107.626 C 237.287 108.371,236.950 108.982,233.569 113.008 C 227.212 120.578,224.815 123.416,222.199 126.471 C 220.728 128.189,218.018 131.396,216.178 133.598 C 210.389 140.525,210.658 140.487,206.067 135.020 C 200.276 128.125,194.103 120.736,191.802 117.947 C 190.448 116.305,188.369 113.817,187.184 112.419 C 184.176 108.870,183.813 107.878,185.300 107.274 C 185.575 107.162,196.706 107.095,210.932 107.120 L 236.079 107.163 236.542 107.626 M244.079 126.699 C 244.895 127.681,243.827 137.200,242.390 141.760 C 238.686 153.513,231.567 160.124,220.100 162.460 C 212.786 163.950,211.385 163.131,214.717 159.315 C 215.540 158.372,216.763 156.931,217.435 156.111 C 220.070 152.897,222.701 149.768,223.666 148.703 C 224.222 148.088,225.131 147.035,225.687 146.363 C 226.242 145.691,228.471 143.043,230.640 140.478 C 232.808 137.912,235.547 134.669,236.725 133.270 C 239.598 129.859,242.495 126.650,242.821 126.517 C 243.335 126.309,243.813 126.377,244.079 126.699 M180.366 128.549 C 181.587 129.858,184.542 133.320,187.514 136.924 C 195.010 146.013,200.988 152.888,207.053 159.393 C 210.456 163.042,209.051 163.801,201.749 162.254 C 188.241 159.392,180.102 149.429,178.121 133.331 C 177.322 126.840,177.808 125.806,180.366 128.549 "
      stroke="none"
      fill="#f52d0d"
      fill-rule="evenodd"
    /></g></svg>
