<?xml version="1.0" standalone="no"?>
<!DOCTYPE svg PUBLIC "-//W3C//DTD SVG 20010904//EN" "http://www.w3.org/TR/2001/REC-SVG-20010904/DTD/svg10.dtd">
<svg version="1.0" xmlns="http://www.w3.org/2000/svg"
  width="2459.000000pt" height="1107.000000pt" viewBox="0 0 2459.000000 1107.000000"
  preserveAspectRatio="xMidYMid meet">
  <metadata> Created by potrace 1.16, written by Peter Selinger 2001-2019 </metadata>
  <g transform="translate(0.000000,1107.000000) scale(0.100000,-0.100000)"
    fill="red" stroke="none">
    <path
      d="M8270 9545 c0 -839 -3 -1525 -7 -1525 -5 1 -212 248 -461 550 l-453
550 -3675 0 c-2021 0 -3674 -2 -3674 -5 0 -3 116 -168 258 -368 142 -199 337
-472 433 -607 l175 -245 444 0 c245 0 1030 3 1745 7 715 5 1806 11 2425 14
l1125 6 670 -757 c369 -417 743 -840 833 -941 l162 -183 0 -1264 c0 -769 4
-1285 10 -1318 5 -30 19 -112 31 -184 56 -342 167 -750 286 -1055 54 -138 182
-406 255 -533 299 -526 699 -926 1208 -1209 429 -239 885 -376 1500 -449 277
-33 941 -35 1260 -4 1086 105 1925 451 2510 1035 592 591 938 1381 1075 2458
l25 193 0 1212 0 1213 596 734 c328 404 666 821 751 926 l155 191 1356 7 c747
3 1877 9 2512 11 635 3 1363 8 1617 11 l463 6 121 187 c66 102 222 341 345
530 124 190 230 353 235 363 9 17 -121 18 -3598 18 l-3608 -1 -470 -529 -470
-529 -3 1505 -2 1504 -734 0 c-404 0 -741 -3 -750 -6 -15 -6 -16 -189 -16
-1975 l0 -1969 -2640 0 -2640 0 0 1975 0 1975 -690 0 -690 0 0 -1525z m6082
-3842 c-27 -32 -281 -328 -563 -659 -283 -330 -747 -873 -1033 -1207 l-519
-606 -1048 1260 c-577 692 -1049 1262 -1049 1264 0 3 959 5 2131 5 l2131 0
-50 -57z m567 -2108 c-72 -369 -215 -782 -361 -1040 -113 -198 -258 -392 -401
-537 -304 -305 -712 -520 -1182 -621 -194 -42 -544 -82 -654 -75 l-53 3 1328
1558 1329 1557 3 -392 c2 -270 -1 -412 -9 -453z m-3934 -760 c1170 -1382 1275
-1510 1251 -1513 -35 -4 -281 24 -426 49 -839 145 -1463 585 -1822 1284 -144
282 -248 588 -314 933 -23 118 -24 147 -24 471 l0 346 29 -30 c16 -17 604
-709 1306 -1540z" />
    <path
      d="M19705 7492 l-780 -3 -280 -355 c-154 -195 -286 -364 -294 -374 -13
-20 2 -20 2340 -20 l2354 0 46 73 c26 39 98 151 161 247 63 96 154 235 201
308 l87 134 -1527 -4 c-841 -2 -1879 -4 -2308 -6z" />
    <path
      d="M2454 7440 l-1262 -5 247 -347 246 -347 2473 -1 c1359 0 2472 3 2472
6 0 3 -90 163 -201 355 l-201 349 -1256 -2 c-692 -2 -1825 -5 -2518 -8z" />
    <path
      d="M2121 6133 c50 -71 177 -250 282 -400 l192 -272 2388 -1 c1314 0
2386 3 2384 8 -16 29 -334 580 -389 675 l-69 117 -2439 0 -2440 0 91 -127z" />
    <path
      d="M17643 5862 l-312 -397 2437 -3 2437 -2 17 22 c10 13 45 66 78 118
34 52 92 142 130 200 38 58 96 148 130 200 33 52 85 132 115 178 l55 82 -2388
-1 -2387 0 -312 -397z" />
  </g>
</svg>