<svg id="svg" xmlns="http://www.w3.org/2000/svg" xmlns:xlink="http://www.w3.org/1999/xlink" width="400" height="225" viewBox="0, 0, 400,225"><g id="svgg"><path id="path0" d="M175.000 2.825 C 175.000 2.874,167.526 2.920,158.307 2.927 C 149.126 2.935,141.169 2.958,140.625 2.979 C 140.081 3.000,136.401 3.043,132.448 3.075 C 128.495 3.107,124.674 3.153,123.958 3.178 C 123.242 3.202,121.016 3.249,119.010 3.281 C 117.005 3.314,114.966 3.360,114.479 3.385 C 113.992 3.410,112.914 3.458,112.083 3.491 C 110.660 3.547,110.361 3.588,109.401 3.861 C 109.186 3.922,108.940 3.985,108.854 4.001 C 108.768 4.018,108.620 4.065,108.524 4.107 C 108.428 4.149,108.287 4.192,108.211 4.204 C 108.135 4.215,108.014 4.261,107.943 4.306 C 107.872 4.350,107.728 4.403,107.624 4.423 C 107.520 4.443,107.204 4.562,106.921 4.688 C 106.638 4.814,106.289 4.964,106.146 5.023 C 106.003 5.081,105.804 5.170,105.705 5.220 C 105.605 5.271,105.453 5.313,105.366 5.313 C 105.279 5.313,105.208 5.359,105.208 5.417 C 105.208 5.474,105.139 5.521,105.055 5.521 C 104.971 5.521,104.725 5.620,104.508 5.741 C 103.688 6.200,103.175 6.502,103.125 6.557 C 103.033 6.658,102.454 6.990,102.266 7.050 C 102.165 7.082,102.083 7.149,102.083 7.200 C 102.083 7.250,102.022 7.292,101.947 7.292 C 101.872 7.292,101.719 7.374,101.608 7.474 C 101.497 7.574,101.207 7.792,100.964 7.957 C 100.720 8.122,100.521 8.298,100.521 8.348 C 100.521 8.397,100.451 8.438,100.365 8.438 C 100.279 8.438,100.208 8.484,100.208 8.542 C 100.208 8.599,100.155 8.646,100.090 8.646 C 100.025 8.646,99.897 8.730,99.804 8.834 C 99.711 8.937,99.307 9.298,98.906 9.635 C 97.971 10.422,97.175 11.217,96.696 11.846 C 96.487 12.120,96.211 12.427,96.082 12.528 C 95.953 12.629,95.741 12.887,95.609 13.101 C 95.478 13.315,95.263 13.597,95.133 13.729 C 95.003 13.860,94.896 14.005,94.896 14.051 C 94.896 14.097,94.779 14.270,94.636 14.437 C 94.492 14.603,94.375 14.777,94.375 14.822 C 94.375 14.868,94.258 15.031,94.115 15.186 C 93.971 15.340,93.854 15.503,93.854 15.548 C 93.854 15.593,93.727 15.827,93.572 16.070 C 93.167 16.702,92.292 18.437,92.376 18.439 C 92.416 18.440,92.397 18.475,92.336 18.517 C 92.215 18.600,91.875 19.245,91.875 19.392 C 91.875 19.441,91.788 19.680,91.681 19.923 C 91.574 20.166,91.381 20.716,91.252 21.146 C 91.123 21.576,90.970 22.028,90.913 22.151 C 90.856 22.274,90.798 22.514,90.783 22.685 C 90.769 22.856,90.715 23.060,90.665 23.139 C 90.541 23.330,90.434 24.750,90.367 27.083 C 90.336 28.143,90.287 29.432,90.258 29.948 C 90.229 30.464,90.183 32.292,90.156 34.010 C 90.129 35.729,90.082 38.378,90.051 39.896 C 89.922 46.361,89.901 48.369,89.835 60.208 C 89.689 86.174,89.812 127.168,90.043 130.000 C 90.064 130.258,90.095 132.602,90.111 135.208 C 90.128 137.815,90.179 140.135,90.224 140.365 C 90.269 140.594,90.328 141.766,90.356 142.969 C 90.413 145.411,90.500 146.636,90.632 146.887 C 90.681 146.979,90.749 147.213,90.783 147.408 C 90.817 147.602,90.889 147.805,90.943 147.859 C 90.997 147.914,91.042 148.090,91.042 148.250 C 91.042 148.410,91.089 148.542,91.146 148.542 C 91.203 148.542,91.250 148.656,91.250 148.796 C 91.250 148.936,91.297 149.079,91.354 149.115 C 91.411 149.150,91.458 149.293,91.458 149.433 C 91.458 149.573,91.505 149.688,91.563 149.688 C 91.620 149.688,91.667 149.777,91.667 149.886 C 91.667 149.995,91.757 150.265,91.868 150.485 C 91.978 150.705,92.243 151.260,92.455 151.719 C 92.668 152.177,92.871 152.576,92.905 152.604 C 93.028 152.705,93.229 153.124,93.229 153.280 C 93.229 153.367,93.265 153.438,93.309 153.438 C 93.387 153.437,93.446 153.529,93.749 154.123 C 93.835 154.290,93.987 154.518,94.088 154.629 C 94.188 154.740,94.271 154.894,94.271 154.971 C 94.271 155.048,94.339 155.137,94.423 155.169 C 94.507 155.201,94.604 155.319,94.640 155.430 C 94.675 155.541,94.817 155.745,94.956 155.884 C 95.095 156.023,95.208 156.177,95.208 156.226 C 95.208 156.275,95.418 156.547,95.674 156.829 C 95.929 157.112,96.140 157.378,96.142 157.420 C 96.144 157.462,96.298 157.656,96.484 157.852 C 96.671 158.047,96.898 158.294,96.990 158.400 C 97.381 158.853,99.353 160.712,99.688 160.944 C 99.888 161.082,100.188 161.325,100.354 161.483 C 100.520 161.641,100.698 161.771,100.750 161.771 C 100.801 161.771,100.947 161.877,101.073 162.007 C 101.199 162.136,101.431 162.308,101.589 162.389 C 101.746 162.469,101.875 162.574,101.875 162.622 C 101.875 162.669,101.945 162.708,102.031 162.708 C 102.117 162.708,102.188 162.755,102.188 162.813 C 102.188 162.870,102.258 162.917,102.344 162.917 C 102.430 162.917,102.500 162.964,102.500 163.021 C 102.500 163.078,102.594 163.125,102.708 163.125 C 102.823 163.125,102.917 163.160,102.917 163.203 C 102.918 163.341,105.022 164.479,105.275 164.479 C 105.353 164.479,105.417 164.526,105.417 164.583 C 105.417 164.641,105.510 164.688,105.625 164.688 C 105.740 164.688,105.833 164.734,105.833 164.792 C 105.833 164.849,105.951 164.896,106.094 164.896 C 106.237 164.896,106.354 164.943,106.354 165.000 C 106.354 165.057,106.466 165.104,106.602 165.104 C 106.738 165.104,106.907 165.173,106.976 165.257 C 107.046 165.341,107.134 165.400,107.171 165.389 C 107.233 165.369,107.582 165.488,108.177 165.731 C 108.292 165.778,108.503 165.846,108.646 165.884 C 108.789 165.921,109.070 166.000,109.271 166.058 C 110.433 166.398,112.339 166.535,117.604 166.657 C 126.378 166.860,129.962 166.884,158.073 166.926 C 173.943 166.950,187.982 166.994,189.271 167.022 C 190.560 167.051,195.505 167.101,200.260 167.133 C 205.016 167.165,209.117 167.211,209.375 167.235 C 209.633 167.259,210.191 167.304,210.615 167.336 C 211.361 167.391,211.979 167.571,211.979 167.734 C 211.979 167.777,212.029 167.813,212.089 167.813 C 212.249 167.813,214.441 169.974,214.796 170.482 C 214.961 170.718,215.252 171.072,215.443 171.269 C 215.634 171.465,215.904 171.788,216.042 171.985 C 216.181 172.182,216.425 172.468,216.585 172.620 C 216.744 172.772,216.875 172.948,216.875 173.011 C 216.875 173.073,216.922 173.125,216.979 173.125 C 217.036 173.125,217.083 173.177,217.083 173.241 C 217.083 173.305,217.271 173.540,217.500 173.762 C 217.729 173.984,217.917 174.210,217.917 174.264 C 217.917 174.318,218.126 174.588,218.382 174.863 C 218.639 175.139,218.850 175.406,218.851 175.457 C 218.853 175.508,219.030 175.748,219.245 175.990 C 219.460 176.233,219.823 176.675,220.052 176.974 C 220.281 177.273,220.680 177.754,220.938 178.042 C 221.195 178.331,221.391 178.587,221.373 178.613 C 221.355 178.638,221.510 178.852,221.718 179.090 C 221.926 179.327,222.174 179.652,222.269 179.813 C 222.363 179.973,222.477 180.104,222.521 180.104 C 222.565 180.104,222.727 180.303,222.880 180.547 C 223.033 180.790,223.268 181.085,223.402 181.201 C 223.536 181.318,223.646 181.468,223.646 181.535 C 223.646 181.602,223.752 181.765,223.883 181.896 C 224.013 182.028,224.259 182.323,224.430 182.551 C 224.600 182.780,224.845 183.075,224.974 183.207 C 225.103 183.339,225.208 183.493,225.208 183.549 C 225.208 183.605,225.402 183.860,225.638 184.117 C 225.875 184.373,226.036 184.583,225.997 184.583 C 225.958 184.583,226.113 184.783,226.341 185.026 C 226.569 185.270,226.882 185.656,227.036 185.885 C 227.191 186.115,227.358 186.318,227.409 186.337 C 227.459 186.356,227.500 186.414,227.500 186.466 C 227.500 186.566,227.725 186.861,228.080 187.226 C 228.199 187.348,228.383 187.589,228.489 187.760 C 228.595 187.932,228.767 188.134,228.872 188.209 C 228.977 188.284,229.063 188.403,229.063 188.474 C 229.063 188.544,229.250 188.809,229.479 189.063 C 229.708 189.316,229.896 189.558,229.896 189.602 C 229.896 189.645,230.060 189.845,230.260 190.045 C 230.461 190.246,230.625 190.448,230.625 190.495 C 230.625 190.542,230.811 190.790,231.039 191.045 C 231.266 191.301,231.455 191.557,231.457 191.615 C 231.460 191.672,231.585 191.835,231.735 191.978 C 231.885 192.120,232.116 192.409,232.249 192.620 C 232.382 192.830,232.610 193.121,232.756 193.267 C 232.902 193.413,233.021 193.572,233.021 193.621 C 233.021 193.669,233.184 193.867,233.384 194.061 C 233.584 194.255,233.728 194.432,233.705 194.455 C 233.668 194.492,233.880 194.774,234.222 195.144 C 234.281 195.208,234.444 195.424,234.584 195.625 C 234.724 195.826,234.947 196.077,235.081 196.184 C 235.214 196.291,235.300 196.401,235.272 196.429 C 235.216 196.485,235.241 196.519,235.782 197.130 C 235.982 197.356,236.146 197.580,236.146 197.628 C 236.146 197.676,236.310 197.879,236.510 198.080 C 236.711 198.280,236.875 198.488,236.875 198.542 C 236.875 198.595,237.015 198.782,237.186 198.957 C 237.357 199.131,237.568 199.412,237.655 199.580 C 237.741 199.748,237.874 199.923,237.950 199.969 C 238.025 200.015,238.231 200.263,238.406 200.521 C 238.582 200.779,238.825 201.079,238.946 201.188 C 239.067 201.297,239.167 201.441,239.167 201.508 C 239.167 201.575,239.289 201.744,239.438 201.883 C 239.587 202.022,239.854 202.346,240.031 202.604 C 240.208 202.862,240.437 203.134,240.541 203.209 C 240.644 203.284,240.729 203.391,240.729 203.446 C 240.729 203.502,240.866 203.698,241.034 203.883 C 241.202 204.068,241.466 204.406,241.622 204.635 C 241.777 204.865,241.984 205.122,242.081 205.208 C 242.307 205.407,242.554 205.853,242.513 205.990 C 242.497 206.047,242.517 206.059,242.559 206.017 C 242.641 205.936,243.125 206.404,243.125 206.564 C 243.125 206.617,243.289 206.824,243.490 207.024 C 243.690 207.225,243.854 207.416,243.854 207.449 C 243.854 207.512,243.881 207.548,244.355 208.125 C 244.520 208.326,244.697 208.567,244.749 208.663 C 244.801 208.758,245.012 209.018,245.218 209.240 C 245.425 209.462,245.612 209.696,245.635 209.761 C 245.676 209.874,245.820 210.052,246.822 211.227 C 247.080 211.530,247.292 211.818,247.292 211.868 C 247.292 211.918,247.456 212.122,247.656 212.323 C 247.857 212.523,248.021 212.729,248.021 212.780 C 248.021 212.831,248.174 213.035,248.360 213.234 C 248.547 213.432,248.816 213.758,248.958 213.958 C 249.100 214.159,249.346 214.459,249.504 214.625 C 249.662 214.791,249.792 214.971,249.792 215.024 C 249.792 215.078,249.944 215.271,250.130 215.453 C 250.316 215.635,250.632 215.994,250.831 216.251 C 251.030 216.508,251.222 216.742,251.259 216.771 C 251.884 217.264,252.189 217.522,252.582 217.891 C 252.842 218.134,253.099 218.333,253.155 218.333 C 253.211 218.333,253.435 218.486,253.654 218.672 C 254.295 219.218,254.660 219.479,254.782 219.479 C 254.845 219.479,254.896 219.526,254.896 219.583 C 254.896 219.641,254.966 219.688,255.052 219.688 C 255.138 219.688,255.208 219.723,255.208 219.766 C 255.208 219.810,255.361 219.910,255.547 219.990 C 255.733 220.069,255.956 220.192,256.042 220.263 C 256.299 220.475,257.819 221.250,257.978 221.250 C 258.059 221.250,258.125 221.297,258.125 221.354 C 258.125 221.411,258.239 221.458,258.379 221.458 C 258.519 221.458,258.663 221.505,258.698 221.563 C 258.733 221.620,258.891 221.667,259.048 221.667 C 259.205 221.667,259.378 221.709,259.432 221.760 C 259.543 221.865,260.137 221.964,261.146 222.045 C 261.518 222.076,261.867 222.143,261.922 222.196 C 262.051 222.321,263.366 222.321,263.495 222.196 C 263.549 222.143,263.898 222.075,264.271 222.044 C 265.397 221.951,265.938 221.859,265.938 221.760 C 265.938 221.709,266.075 221.667,266.244 221.667 C 266.412 221.667,266.579 221.620,266.615 221.563 C 266.650 221.505,266.793 221.458,266.933 221.458 C 267.073 221.458,267.188 221.411,267.188 221.354 C 267.188 221.297,267.305 221.250,267.448 221.250 C 267.591 221.250,267.708 221.203,267.708 221.146 C 267.708 221.089,267.802 221.042,267.917 221.042 C 268.031 221.042,268.125 220.995,268.125 220.938 C 268.125 220.880,268.179 220.833,268.245 220.833 C 268.312 220.833,268.511 220.727,268.688 220.597 C 268.865 220.467,269.139 220.295,269.297 220.215 C 269.454 220.135,269.583 220.030,269.583 219.982 C 269.583 219.935,269.653 219.896,269.738 219.896 C 269.948 219.896,272.089 217.766,272.434 217.214 C 272.586 216.970,272.757 216.771,272.814 216.771 C 272.870 216.771,272.917 216.677,272.917 216.563 C 272.917 216.448,272.957 216.354,273.007 216.354 C 273.057 216.354,273.547 215.452,274.095 214.349 L 275.092 212.344 275.147 206.979 C 275.177 204.029,275.254 197.068,275.317 191.510 C 275.380 185.953,275.464 178.207,275.503 174.297 C 275.541 170.386,275.608 167.188,275.652 167.188 C 275.695 167.189,275.900 167.119,276.107 167.032 C 276.314 166.946,276.592 166.875,276.725 166.875 C 276.858 166.875,276.993 166.833,277.024 166.782 C 277.056 166.731,277.246 166.661,277.447 166.626 C 277.648 166.591,277.977 166.534,278.178 166.499 C 278.379 166.464,278.569 166.394,278.601 166.343 C 278.632 166.292,278.797 166.250,278.966 166.250 C 279.135 166.250,279.355 166.208,279.455 166.157 C 279.554 166.105,279.987 165.957,280.417 165.827 C 280.846 165.697,281.307 165.525,281.441 165.443 C 281.575 165.362,281.711 165.322,281.742 165.354 C 281.774 165.385,281.922 165.348,282.072 165.270 C 282.221 165.193,282.484 165.071,282.656 165.001 C 282.828 164.930,283.050 164.830,283.150 164.780 C 283.249 164.729,283.401 164.688,283.488 164.688 C 283.575 164.688,283.646 164.641,283.646 164.583 C 283.646 164.526,283.712 164.479,283.793 164.479 C 283.957 164.479,285.209 163.836,285.641 163.529 C 285.793 163.422,285.969 163.333,286.032 163.333 C 286.094 163.333,286.146 163.286,286.146 163.229 C 286.146 163.172,286.207 163.125,286.282 163.125 C 286.358 163.125,286.520 163.031,286.643 162.917 C 286.766 162.802,286.894 162.708,286.928 162.708 C 287.051 162.708,288.182 161.893,288.430 161.626 C 288.569 161.477,288.724 161.354,288.776 161.354 C 288.827 161.354,288.929 161.296,289.002 161.224 C 289.075 161.152,289.592 160.672,290.152 160.156 C 291.508 158.906,294.062 156.100,294.063 155.860 C 294.063 155.808,294.180 155.655,294.323 155.521 C 294.466 155.386,294.583 155.220,294.583 155.151 C 294.583 155.082,294.655 154.966,294.742 154.894 C 294.829 154.822,294.974 154.605,295.066 154.413 C 295.157 154.220,295.274 154.062,295.324 154.062 C 295.375 154.062,295.417 153.969,295.417 153.854 C 295.417 153.740,295.458 153.646,295.509 153.646 C 295.559 153.646,295.628 153.564,295.661 153.464 C 295.694 153.363,295.887 153.000,296.090 152.656 C 296.443 152.059,296.666 151.612,296.898 151.042 C 296.956 150.898,297.045 150.700,297.095 150.600 C 297.146 150.501,297.188 150.349,297.188 150.262 C 297.188 150.175,297.234 150.104,297.292 150.104 C 297.349 150.104,297.396 149.995,297.396 149.861 C 297.396 149.727,297.428 149.586,297.467 149.547 C 297.543 149.471,297.792 148.821,297.863 148.515 C 297.886 148.415,297.937 148.280,297.977 148.216 C 298.016 148.153,298.089 147.942,298.139 147.748 C 298.188 147.554,298.283 147.220,298.348 147.005 C 298.613 146.131,298.818 140.391,298.914 131.146 C 298.949 127.807,299.017 125.218,299.071 125.161 C 299.199 125.029,299.200 46.667,299.072 46.667 C 299.017 46.667,298.951 44.018,298.915 40.339 C 298.821 30.683,298.611 24.290,298.350 23.125 C 298.177 22.351,298.052 21.906,297.975 21.781 C 297.935 21.716,297.879 21.535,297.851 21.378 C 297.823 21.222,297.756 21.049,297.702 20.995 C 297.648 20.940,297.604 20.811,297.604 20.707 C 297.604 20.603,297.563 20.437,297.512 20.337 C 297.462 20.238,297.374 20.039,297.318 19.896 C 297.087 19.308,296.980 19.069,296.512 18.099 C 296.242 17.541,295.980 17.057,295.928 17.025 C 295.876 16.993,295.833 16.876,295.833 16.765 C 295.833 16.653,295.792 16.563,295.741 16.563 C 295.691 16.563,295.623 16.480,295.591 16.380 C 295.514 16.137,295.176 15.582,295.078 15.538 C 295.035 15.519,295.000 15.460,295.000 15.407 C 295.000 15.280,294.209 14.124,294.009 13.957 C 293.924 13.887,293.854 13.768,293.854 13.694 C 293.854 13.620,293.817 13.543,293.772 13.524 C 293.726 13.505,293.427 13.161,293.106 12.760 C 292.447 11.935,289.869 9.355,289.183 8.833 C 288.935 8.644,288.560 8.359,288.350 8.200 C 287.579 7.616,286.779 7.083,286.672 7.083 C 286.612 7.083,286.563 7.044,286.563 6.996 C 286.563 6.947,286.340 6.797,286.068 6.662 C 285.796 6.528,285.501 6.358,285.413 6.286 C 285.164 6.081,283.634 5.312,283.475 5.312 C 283.397 5.312,283.333 5.266,283.333 5.208 C 283.333 5.151,283.216 5.104,283.073 5.104 C 282.930 5.104,282.813 5.057,282.813 5.000 C 282.813 4.943,282.722 4.896,282.610 4.896 C 282.499 4.896,282.379 4.849,282.344 4.792 C 282.308 4.734,282.171 4.688,282.038 4.688 C 281.905 4.688,281.739 4.619,281.669 4.535 C 281.600 4.450,281.512 4.390,281.474 4.400 C 281.437 4.410,281.078 4.315,280.677 4.188 C 279.984 3.968,279.670 3.879,278.776 3.650 C 278.032 3.459,271.759 3.279,262.292 3.176 C 259.513 3.146,256.138 3.098,254.792 3.070 C 253.445 3.042,243.813 2.994,233.385 2.963 C 222.958 2.932,214.309 2.868,214.164 2.821 C 213.812 2.707,175.000 2.710,175.000 2.825 M239.219 12.763 C 250.849 12.789,260.669 12.833,261.042 12.861 C 261.414 12.889,264.461 12.938,267.813 12.969 C 271.164 13.000,273.989 13.028,274.091 13.030 C 274.192 13.032,274.255 13.066,274.231 13.105 C 274.207 13.145,274.593 13.192,275.088 13.210 C 275.584 13.228,276.034 13.286,276.089 13.340 C 276.143 13.394,276.316 13.438,276.473 13.438 C 276.630 13.438,276.788 13.484,276.823 13.542 C 276.858 13.599,277.022 13.646,277.188 13.646 C 277.353 13.646,277.517 13.693,277.552 13.750 C 277.587 13.807,277.728 13.854,277.865 13.854 C 278.001 13.854,278.142 13.901,278.177 13.958 C 278.212 14.016,278.325 14.062,278.427 14.063 C 278.596 14.063,280.085 14.757,280.208 14.893 C 280.237 14.925,280.495 15.067,280.781 15.210 C 281.068 15.352,281.393 15.551,281.504 15.651 C 281.615 15.751,281.758 15.833,281.822 15.833 C 281.886 15.833,282.118 15.997,282.336 16.198 C 282.555 16.398,282.768 16.563,282.809 16.563 C 282.924 16.563,285.521 19.157,285.521 19.272 C 285.521 19.328,285.673 19.550,285.859 19.765 C 286.046 19.980,286.257 20.262,286.328 20.391 C 286.400 20.520,286.517 20.730,286.589 20.859 C 286.660 20.988,286.742 21.117,286.771 21.146 C 286.922 21.297,287.173 21.855,287.115 21.912 C 287.079 21.949,287.103 21.979,287.170 21.979 C 287.237 21.979,287.292 22.044,287.292 22.123 C 287.292 22.202,287.361 22.324,287.447 22.395 C 287.532 22.466,287.579 22.561,287.550 22.608 C 287.521 22.654,287.569 22.762,287.655 22.849 C 287.742 22.935,287.813 23.077,287.813 23.163 C 287.813 23.250,287.859 23.350,287.917 23.385 C 287.974 23.421,288.021 23.564,288.021 23.704 C 288.021 23.844,288.068 23.958,288.125 23.958 C 288.182 23.958,288.229 24.037,288.229 24.133 C 288.229 24.329,288.415 24.956,288.554 25.233 C 288.605 25.332,288.646 25.535,288.646 25.683 C 288.646 25.830,288.687 26.030,288.738 26.127 C 288.788 26.223,288.858 26.654,288.892 27.083 C 288.927 27.513,288.979 28.052,289.008 28.281 C 289.037 28.510,289.084 30.596,289.112 32.917 C 289.140 35.237,289.197 38.214,289.238 39.531 C 289.393 44.474,289.326 132.291,289.167 132.292 C 289.138 132.292,289.100 134.383,289.081 136.939 C 289.063 139.495,289.014 141.687,288.971 141.809 C 288.929 141.931,288.880 142.359,288.864 142.760 C 288.847 143.161,288.791 143.569,288.739 143.665 C 288.688 143.762,288.646 143.981,288.646 144.154 C 288.646 144.326,288.599 144.496,288.542 144.531 C 288.484 144.567,288.438 144.731,288.438 144.896 C 288.438 145.061,288.391 145.225,288.333 145.260 C 288.276 145.296,288.229 145.436,288.229 145.573 C 288.229 145.709,288.182 145.850,288.125 145.885 C 288.068 145.921,288.021 146.064,288.021 146.204 C 288.021 146.344,287.985 146.458,287.942 146.458 C 287.873 146.458,287.726 146.809,287.594 147.289 C 287.571 147.374,287.493 147.506,287.421 147.584 C 287.349 147.662,287.317 147.769,287.349 147.822 C 287.382 147.875,287.336 147.946,287.246 147.981 C 287.157 148.015,287.083 148.132,287.083 148.240 C 287.083 148.349,287.036 148.438,286.979 148.438 C 286.922 148.438,286.875 148.526,286.875 148.633 C 286.875 148.741,286.804 148.888,286.717 148.960 C 286.630 149.032,286.484 149.249,286.392 149.441 C 286.301 149.634,286.185 149.792,286.134 149.792 C 286.083 149.792,286.042 149.857,286.042 149.937 C 286.042 150.017,285.901 150.233,285.729 150.417 C 285.557 150.601,285.417 150.794,285.417 150.847 C 285.417 150.969,282.934 153.437,282.811 153.438 C 282.760 153.438,282.601 153.555,282.457 153.698 C 282.314 153.841,282.169 153.958,282.134 153.958 C 282.100 153.958,281.805 154.137,281.479 154.356 C 281.152 154.574,280.712 154.833,280.499 154.931 C 280.287 155.029,280.084 155.156,280.049 155.213 C 280.014 155.270,279.945 155.291,279.896 155.260 C 279.846 155.230,279.777 155.251,279.742 155.308 C 279.707 155.365,279.505 155.487,279.292 155.579 C 279.080 155.671,278.825 155.790,278.725 155.842 C 278.626 155.895,278.450 155.937,278.335 155.937 C 278.219 155.938,278.125 155.984,278.125 156.042 C 278.125 156.099,277.987 156.146,277.819 156.146 C 277.650 156.146,277.483 156.193,277.448 156.250 C 277.413 156.307,277.248 156.354,277.083 156.354 C 276.918 156.354,276.754 156.401,276.719 156.458 C 276.683 156.516,276.477 156.563,276.259 156.563 C 276.042 156.562,275.729 156.606,275.562 156.660 C 275.396 156.713,274.825 156.781,274.294 156.812 C 273.762 156.842,273.279 156.896,273.221 156.932 C 273.162 156.969,272.191 157.016,271.062 157.038 C 269.934 157.060,268.893 157.104,268.750 157.137 C 268.607 157.170,267.863 157.216,267.096 157.240 C 266.330 157.264,265.689 157.297,265.673 157.314 C 265.656 157.330,265.611 164.281,265.573 172.760 C 265.433 203.224,265.419 205.000,265.313 205.000 C 265.284 205.000,265.245 205.803,265.227 206.784 C 265.209 207.764,265.158 208.667,265.115 208.789 C 265.072 208.911,265.025 209.221,265.010 209.479 C 264.996 209.737,264.940 209.992,264.888 210.047 C 264.835 210.101,264.792 210.230,264.792 210.333 C 264.792 210.436,264.745 210.521,264.688 210.521 C 264.630 210.521,264.583 210.606,264.583 210.710 C 264.583 210.946,264.046 211.563,263.840 211.563 C 263.756 211.563,263.639 211.611,263.579 211.671 C 263.233 212.017,260.908 211.693,260.521 211.245 C 260.492 211.211,260.258 211.039,260.000 210.861 C 259.527 210.535,258.409 209.406,257.903 208.744 C 257.753 208.547,257.494 208.245,257.329 208.073 C 257.164 207.901,256.913 207.596,256.772 207.396 C 256.630 207.195,256.338 206.852,256.122 206.632 C 255.906 206.413,255.729 206.200,255.729 206.159 C 255.729 206.118,255.576 205.923,255.390 205.725 C 255.203 205.527,254.937 205.201,254.798 205.000 C 254.659 204.799,254.378 204.444,254.174 204.210 C 253.710 203.680,253.523 203.448,252.947 202.691 C 252.696 202.360,252.441 202.059,252.382 202.023 C 252.323 201.986,252.197 201.829,252.101 201.673 C 251.926 201.389,251.472 200.827,250.651 199.879 C 250.408 199.598,250.208 199.333,250.208 199.289 C 250.208 199.246,250.044 199.036,249.844 198.824 C 249.643 198.611,249.479 198.397,249.479 198.349 C 249.479 198.300,249.350 198.123,249.193 197.956 C 249.035 197.789,248.766 197.465,248.595 197.237 C 248.424 197.009,248.155 196.687,247.996 196.521 C 247.838 196.355,247.708 196.173,247.708 196.117 C 247.708 196.060,247.623 195.938,247.519 195.846 C 247.416 195.753,247.186 195.466,247.010 195.208 C 246.833 194.951,246.567 194.626,246.417 194.487 C 246.268 194.348,246.146 194.192,246.146 194.141 C 246.146 194.090,246.087 193.987,246.016 193.913 C 245.653 193.539,245.313 193.117,245.313 193.042 C 245.313 192.996,245.148 192.799,244.948 192.604 C 244.747 192.410,244.583 192.201,244.583 192.141 C 244.583 192.081,244.452 191.891,244.293 191.719 C 244.134 191.547,243.890 191.242,243.751 191.042 C 243.612 190.841,243.414 190.616,243.312 190.541 C 243.209 190.466,243.125 190.347,243.125 190.276 C 243.125 190.205,242.972 189.985,242.786 189.787 C 242.599 189.589,242.332 189.263,242.192 189.063 C 242.052 188.862,241.853 188.622,241.750 188.529 C 241.647 188.437,241.563 188.312,241.563 188.252 C 241.563 188.192,241.375 187.941,241.146 187.696 C 240.917 187.450,240.729 187.214,240.729 187.171 C 240.729 187.128,240.622 186.985,240.491 186.854 C 240.360 186.722,240.108 186.404,239.930 186.146 C 239.753 185.888,239.508 185.588,239.387 185.479 C 239.266 185.370,239.167 185.234,239.167 185.178 C 239.167 185.121,238.991 184.876,238.776 184.631 C 238.051 183.807,237.604 183.246,237.603 183.159 C 237.603 183.112,237.449 182.909,237.261 182.708 C 237.073 182.508,236.806 182.180,236.668 181.979 C 236.529 181.779,236.332 181.539,236.229 181.446 C 236.126 181.353,236.041 181.236,236.041 181.186 C 236.040 181.135,235.886 180.930,235.698 180.729 C 235.511 180.529,235.244 180.201,235.105 180.000 C 234.967 179.799,234.778 179.565,234.686 179.479 C 234.594 179.393,234.368 179.102,234.184 178.832 C 234.000 178.562,233.790 178.304,233.716 178.259 C 233.643 178.214,233.470 178.013,233.332 177.813 C 233.193 177.612,233.016 177.382,232.938 177.302 C 232.860 177.221,232.613 176.908,232.390 176.606 C 232.166 176.304,231.932 176.025,231.869 175.986 C 231.806 175.947,231.676 175.787,231.580 175.632 C 231.378 175.302,230.799 174.597,230.026 173.736 C 229.725 173.401,229.479 173.088,229.479 173.040 C 229.479 172.993,229.280 172.745,229.036 172.489 C 228.793 172.233,228.455 171.838,228.286 171.611 C 228.116 171.384,227.858 171.081,227.712 170.938 C 227.567 170.794,227.324 170.512,227.174 170.310 C 227.023 170.108,226.672 169.708,226.393 169.421 C 226.114 169.134,225.746 168.713,225.576 168.486 C 225.405 168.259,224.937 167.739,224.534 167.331 C 224.131 166.923,223.638 166.385,223.438 166.135 C 223.237 165.884,221.167 163.769,218.837 161.434 L 214.600 157.188 212.691 157.186 C 211.641 157.186,208.977 157.159,206.771 157.127 C 204.565 157.095,187.362 157.053,168.542 157.034 C 149.721 157.014,130.995 156.965,126.927 156.924 C 122.859 156.882,117.891 156.840,115.885 156.829 C 112.343 156.810,112.228 156.803,111.846 156.582 C 111.629 156.457,111.383 156.354,111.299 156.354 C 111.215 156.354,111.146 156.307,111.146 156.250 C 111.146 156.193,111.080 156.146,110.999 156.146 C 110.919 156.146,110.661 156.052,110.427 155.938 C 110.192 155.823,109.824 155.644,109.609 155.539 C 109.395 155.435,109.008 155.231,108.750 155.085 C 108.492 154.940,108.094 154.715,107.865 154.586 C 107.327 154.282,106.832 153.936,106.788 153.832 C 106.769 153.787,106.699 153.749,106.632 153.749 C 106.565 153.748,106.299 153.547,106.042 153.301 C 105.784 153.056,105.420 152.748,105.233 152.617 C 104.930 152.405,103.641 150.952,103.229 150.358 C 102.797 149.734,102.437 149.187,102.272 148.906 C 101.957 148.368,101.187 146.747,101.084 146.406 C 100.978 146.058,100.757 145.514,100.696 145.453 C 100.657 145.414,100.625 145.252,100.625 145.093 C 100.625 144.934,100.583 144.778,100.532 144.747 C 100.481 144.715,100.413 144.537,100.380 144.350 C 100.348 144.163,100.266 143.753,100.199 143.438 C 99.348 139.441,99.466 26.797,100.323 25.891 C 100.375 25.836,100.417 25.660,100.417 25.499 C 100.417 25.337,100.458 25.124,100.508 25.025 C 100.558 24.925,100.656 24.656,100.725 24.427 C 100.871 23.943,101.076 23.445,101.360 22.881 C 101.472 22.661,101.563 22.414,101.563 22.334 C 101.563 22.253,101.609 22.188,101.667 22.188 C 101.724 22.188,101.771 22.094,101.771 21.979 C 101.771 21.865,101.818 21.771,101.875 21.771 C 101.932 21.771,101.979 21.677,101.979 21.563 C 101.979 21.448,102.021 21.354,102.071 21.354 C 102.122 21.354,102.191 21.272,102.225 21.172 C 102.315 20.905,102.629 20.387,102.946 19.987 C 103.098 19.793,103.424 19.380,103.669 19.068 C 104.711 17.740,107.411 15.417,107.911 15.417 C 107.971 15.417,108.021 15.381,108.021 15.338 C 108.021 15.295,108.173 15.193,108.359 15.112 C 108.546 15.031,108.869 14.858,109.077 14.728 C 109.286 14.597,109.478 14.513,109.505 14.540 C 109.532 14.566,109.613 14.517,109.685 14.430 C 109.758 14.342,109.882 14.271,109.962 14.271 C 110.042 14.271,110.200 14.224,110.314 14.167 C 110.428 14.109,110.614 14.016,110.728 13.958 C 110.842 13.901,111.026 13.854,111.138 13.854 C 111.250 13.854,111.371 13.807,111.406 13.750 C 111.442 13.693,111.606 13.646,111.771 13.646 C 111.936 13.646,112.100 13.599,112.135 13.542 C 112.171 13.484,112.352 13.438,112.537 13.438 C 112.723 13.438,112.920 13.395,112.974 13.344 C 113.028 13.292,113.424 13.223,113.854 13.190 C 114.284 13.157,114.753 13.103,114.896 13.069 C 115.039 13.035,117.922 12.985,121.302 12.958 C 124.682 12.931,127.729 12.887,128.073 12.860 C 128.417 12.834,141.070 12.788,156.191 12.759 C 171.312 12.729,183.702 12.687,183.724 12.665 C 183.746 12.643,191.484 12.645,200.919 12.671 C 210.354 12.696,227.589 12.738,239.219 12.763 M134.545 40.950 C 134.385 40.993,133.942 41.038,133.560 41.050 C 133.177 41.061,132.775 41.117,132.665 41.174 C 132.555 41.230,132.301 41.292,132.101 41.311 C 131.901 41.331,131.688 41.395,131.629 41.455 C 131.569 41.514,131.412 41.563,131.280 41.563 C 131.147 41.563,130.957 41.604,130.858 41.655 C 130.758 41.705,130.560 41.793,130.417 41.850 C 129.325 42.284,128.303 42.871,127.744 43.385 C 126.913 44.149,126.334 44.772,126.224 45.022 C 126.153 45.182,126.060 45.313,126.016 45.313 C 125.973 45.313,125.938 45.402,125.938 45.512 C 125.938 45.622,125.881 45.731,125.812 45.754 C 125.646 45.809,125.609 47.188,125.768 47.386 C 125.833 47.466,125.874 47.548,125.859 47.568 C 125.845 47.588,125.837 47.616,125.842 47.630 C 125.847 47.645,125.867 47.811,125.887 48.001 C 125.906 48.191,125.963 48.401,126.013 48.470 C 126.064 48.538,126.118 48.758,126.135 48.958 C 126.151 49.159,126.208 49.339,126.260 49.358 C 126.312 49.377,126.354 49.550,126.354 49.742 C 126.354 49.934,126.396 50.118,126.447 50.149 C 126.534 50.203,126.566 50.332,126.727 51.277 C 126.764 51.492,126.836 51.694,126.887 51.726 C 126.937 51.757,126.979 51.895,126.979 52.032 C 126.979 52.170,127.021 52.390,127.072 52.521 C 127.225 52.911,127.414 53.590,127.386 53.646 C 127.372 53.674,127.422 53.812,127.497 53.952 C 127.572 54.092,127.645 54.343,127.659 54.508 C 127.673 54.674,127.737 54.862,127.801 54.926 C 127.864 54.989,127.917 55.170,127.917 55.327 C 127.917 55.484,127.964 55.642,128.021 55.677 C 128.078 55.712,128.125 55.877,128.125 56.042 C 128.125 56.207,128.172 56.371,128.229 56.406 C 128.286 56.442,128.333 56.629,128.333 56.823 C 128.333 57.017,128.380 57.204,128.438 57.240 C 128.495 57.275,128.542 57.439,128.542 57.604 C 128.542 57.769,128.589 57.933,128.646 57.969 C 128.703 58.004,128.750 58.168,128.750 58.333 C 128.750 58.498,128.797 58.663,128.854 58.698 C 128.911 58.733,128.958 58.866,128.958 58.992 C 128.958 59.118,129.056 59.479,129.176 59.793 C 129.296 60.107,129.404 60.458,129.416 60.573 C 129.428 60.688,129.497 60.891,129.571 61.025 C 129.644 61.158,129.679 61.293,129.648 61.324 C 129.617 61.355,129.660 61.513,129.744 61.675 C 129.827 61.836,129.896 62.086,129.896 62.228 C 129.896 62.371,129.943 62.517,130.000 62.552 C 130.057 62.587,130.104 62.752,130.104 62.917 C 130.104 63.082,130.151 63.246,130.208 63.281 C 130.266 63.317,130.313 63.483,130.313 63.652 C 130.313 63.820,130.359 63.958,130.417 63.958 C 130.474 63.958,130.521 64.122,130.521 64.323 C 130.521 64.523,130.568 64.688,130.625 64.688 C 130.682 64.688,130.729 64.844,130.729 65.035 C 130.729 65.226,130.760 65.413,130.798 65.451 C 130.901 65.553,131.208 66.486,131.199 66.667 C 131.194 66.753,131.229 66.850,131.276 66.883 C 131.323 66.917,131.386 67.076,131.415 67.238 C 131.444 67.400,131.513 67.616,131.567 67.718 C 131.622 67.820,131.667 68.023,131.667 68.170 C 131.667 68.317,131.714 68.438,131.771 68.438 C 131.828 68.438,131.875 68.599,131.875 68.796 C 131.875 68.993,131.922 69.183,131.979 69.219 C 132.036 69.254,132.083 69.395,132.083 69.531 C 132.083 69.668,132.130 69.808,132.188 69.844 C 132.245 69.879,132.292 70.043,132.292 70.208 C 132.292 70.373,132.339 70.538,132.396 70.573 C 132.453 70.608,132.500 70.772,132.500 70.938 C 132.500 71.103,132.547 71.267,132.604 71.302 C 132.661 71.337,132.708 71.483,132.708 71.624 C 132.708 71.766,132.784 71.998,132.877 72.139 C 132.969 72.280,133.017 72.396,132.983 72.396 C 132.949 72.396,132.972 72.525,133.033 72.682 C 133.095 72.840,133.159 73.063,133.177 73.177 C 133.195 73.292,133.268 73.549,133.339 73.750 C 133.411 73.951,133.502 74.208,133.543 74.323 C 133.751 74.907,133.854 75.297,133.854 75.496 C 133.854 75.617,133.901 75.746,133.958 75.781 C 134.016 75.817,134.063 75.981,134.063 76.146 C 134.063 76.311,134.109 76.475,134.167 76.510 C 134.224 76.546,134.271 76.666,134.271 76.778 C 134.271 76.890,134.312 77.063,134.362 77.163 C 134.484 77.403,134.689 78.058,134.752 78.405 C 134.780 78.558,134.834 78.733,134.872 78.795 C 134.911 78.856,134.956 78.996,134.973 79.106 C 134.990 79.216,135.054 79.367,135.115 79.440 C 135.176 79.514,135.201 79.615,135.171 79.664 C 135.140 79.714,135.183 79.885,135.266 80.045 C 135.349 80.205,135.417 80.445,135.417 80.579 C 135.417 80.712,135.464 80.850,135.521 80.885 C 135.578 80.921,135.625 81.088,135.625 81.256 C 135.625 81.425,135.672 81.563,135.729 81.563 C 135.786 81.563,135.833 81.680,135.833 81.824 C 135.833 81.968,135.874 82.168,135.925 82.267 C 136.077 82.568,136.250 83.178,136.250 83.413 C 136.250 83.534,136.297 83.663,136.354 83.698 C 136.411 83.733,136.458 83.856,136.458 83.971 C 136.458 84.086,136.515 84.283,136.585 84.408 C 136.654 84.533,136.717 84.706,136.724 84.792 C 136.731 84.878,136.791 85.080,136.858 85.241 C 136.925 85.402,136.979 85.622,136.979 85.730 C 136.979 85.837,137.026 85.954,137.083 85.990 C 137.141 86.025,137.188 86.192,137.188 86.360 C 137.188 86.529,137.234 86.667,137.292 86.667 C 137.349 86.667,137.396 86.805,137.396 86.973 C 137.396 87.142,137.443 87.308,137.500 87.344 C 137.557 87.379,137.604 87.546,137.604 87.714 C 137.604 87.883,137.651 88.021,137.708 88.021 C 137.766 88.021,137.813 88.185,137.813 88.385 C 137.813 88.586,137.859 88.750,137.917 88.750 C 137.974 88.750,138.021 88.888,138.021 89.056 C 138.021 89.225,138.068 89.392,138.125 89.427 C 138.182 89.462,138.229 89.595,138.229 89.723 C 138.229 89.850,138.293 90.046,138.371 90.159 C 138.449 90.272,138.498 90.457,138.481 90.569 C 138.464 90.682,138.505 90.842,138.574 90.924 C 138.642 91.006,138.700 91.149,138.702 91.240 C 138.704 91.331,138.762 91.509,138.832 91.634 C 138.901 91.759,138.958 91.979,138.958 92.122 C 138.958 92.266,139.005 92.413,139.063 92.448 C 139.120 92.483,139.167 92.624,139.167 92.760 C 139.167 92.897,139.214 93.038,139.271 93.073 C 139.328 93.108,139.375 93.272,139.375 93.438 C 139.375 93.603,139.422 93.767,139.479 93.802 C 139.536 93.837,139.583 93.982,139.583 94.122 C 139.583 94.263,139.626 94.459,139.677 94.559 C 139.729 94.658,139.828 94.951,139.898 95.208 C 139.967 95.466,140.058 95.771,140.100 95.885 C 140.304 96.438,140.434 96.845,140.480 97.073 C 140.508 97.211,140.576 97.408,140.631 97.511 C 140.686 97.613,140.740 97.817,140.753 97.963 C 140.765 98.109,140.811 98.229,140.856 98.229 C 140.901 98.229,140.938 98.367,140.938 98.536 C 140.938 98.704,140.984 98.871,141.042 98.906 C 141.099 98.942,141.146 99.108,141.146 99.277 C 141.146 99.445,141.193 99.583,141.250 99.583 C 141.307 99.583,141.354 99.721,141.354 99.890 C 141.354 100.058,141.401 100.225,141.458 100.260 C 141.516 100.296,141.563 100.440,141.563 100.580 C 141.563 100.721,141.604 100.918,141.654 101.017 C 141.784 101.273,142.191 102.511,142.227 102.761 C 142.244 102.877,142.314 103.077,142.384 103.206 C 142.453 103.336,142.486 103.481,142.456 103.528 C 142.427 103.576,142.470 103.704,142.552 103.813 C 142.634 103.921,142.703 104.139,142.705 104.297 C 142.707 104.454,142.755 104.583,142.813 104.583 C 142.870 104.583,142.917 104.721,142.917 104.890 C 142.917 105.058,142.964 105.225,143.021 105.260 C 143.078 105.296,143.125 105.424,143.125 105.546 C 143.125 105.747,143.238 106.171,143.438 106.719 C 143.632 107.250,143.983 108.393,144.027 108.636 C 144.053 108.785,144.119 108.951,144.173 109.005 C 144.227 109.060,144.271 109.209,144.271 109.338 C 144.271 109.466,144.318 109.600,144.375 109.635 C 144.432 109.671,144.479 109.815,144.479 109.955 C 144.479 110.096,144.521 110.293,144.573 110.392 C 144.625 110.492,144.723 110.784,144.792 111.042 C 144.860 111.299,144.958 111.592,145.010 111.691 C 145.062 111.791,145.104 111.987,145.104 112.128 C 145.104 112.268,145.151 112.413,145.208 112.448 C 145.266 112.483,145.313 112.641,145.313 112.798 C 145.313 112.955,145.351 113.128,145.399 113.182 C 145.446 113.237,145.545 113.492,145.618 113.750 C 145.691 114.008,145.801 114.336,145.862 114.479 C 145.924 114.622,145.965 114.777,145.954 114.824 C 145.943 114.870,145.999 115.058,146.078 115.240 C 146.158 115.423,146.281 115.784,146.351 116.042 C 146.421 116.299,146.521 116.592,146.573 116.691 C 146.624 116.791,146.667 116.987,146.667 117.128 C 146.667 117.268,146.714 117.413,146.771 117.448 C 146.828 117.483,146.875 117.650,146.875 117.819 C 146.875 117.987,146.922 118.125,146.979 118.125 C 147.036 118.125,147.083 118.263,147.083 118.431 C 147.083 118.600,147.130 118.767,147.188 118.802 C 147.245 118.837,147.292 118.995,147.292 119.152 C 147.292 119.309,147.336 119.482,147.390 119.536 C 147.443 119.591,147.512 119.772,147.542 119.939 C 147.572 120.107,147.635 120.271,147.682 120.304 C 147.729 120.337,147.763 120.435,147.757 120.521 C 147.752 120.607,147.811 120.807,147.888 120.967 C 147.966 121.126,148.005 121.295,147.976 121.342 C 147.947 121.389,147.991 121.517,148.073 121.625 C 148.155 121.734,148.224 121.949,148.226 122.103 C 148.228 122.257,148.276 122.413,148.333 122.448 C 148.391 122.483,148.438 122.624,148.438 122.760 C 148.438 122.897,148.484 123.038,148.542 123.073 C 148.599 123.108,148.646 123.275,148.646 123.444 C 148.646 123.612,148.693 123.750,148.750 123.750 C 148.807 123.750,148.854 123.844,148.854 123.960 C 148.854 124.075,148.898 124.251,148.952 124.350 C 149.006 124.450,149.132 124.730,149.233 124.974 C 149.333 125.217,149.453 125.417,149.499 125.417 C 149.545 125.417,149.583 125.478,149.583 125.553 C 149.583 125.628,149.677 125.791,149.792 125.914 C 149.906 126.036,150.000 126.183,150.000 126.240 C 150.000 126.384,151.376 127.813,151.514 127.813 C 151.577 127.813,151.720 127.895,151.832 127.995 C 152.304 128.414,153.582 129.033,154.427 129.250 C 154.656 129.309,155.031 129.407,155.260 129.467 C 156.604 129.817,162.807 129.820,163.172 129.470 C 163.226 129.418,163.423 129.375,163.608 129.375 C 163.794 129.375,163.975 129.328,164.010 129.271 C 164.046 129.214,164.158 129.167,164.259 129.167 C 164.457 129.167,165.304 128.765,165.569 128.545 C 165.657 128.472,165.729 128.448,165.729 128.493 C 165.729 128.538,165.811 128.506,165.911 128.423 C 166.012 128.340,166.223 128.208,166.380 128.129 C 166.538 128.050,166.667 127.947,166.667 127.899 C 166.667 127.851,166.734 127.813,166.817 127.813 C 167.021 127.813,168.229 126.615,168.229 126.412 C 168.229 126.323,168.276 126.250,168.333 126.250 C 168.391 126.250,168.438 126.156,168.438 126.042 C 168.438 125.927,168.484 125.833,168.542 125.833 C 168.599 125.833,168.646 125.762,168.646 125.676 C 168.646 125.589,168.688 125.437,168.739 125.337 C 168.834 125.151,169.088 124.572,169.115 124.479 C 169.141 124.387,169.395 123.807,169.490 123.621 C 169.542 123.522,169.583 123.349,169.583 123.237 C 169.583 123.125,169.630 123.004,169.688 122.969 C 169.745 122.933,169.792 122.793,169.792 122.656 C 169.792 122.520,169.839 122.379,169.896 122.344 C 169.953 122.308,170.000 122.165,170.000 122.025 C 170.000 121.885,170.047 121.771,170.104 121.771 C 170.161 121.771,170.208 121.633,170.208 121.464 C 170.208 121.296,170.255 121.129,170.313 121.094 C 170.370 121.058,170.417 120.918,170.417 120.781 C 170.417 120.645,170.464 120.504,170.521 120.469 C 170.578 120.433,170.625 120.299,170.625 120.171 C 170.625 120.043,170.669 119.893,170.723 119.839 C 170.777 119.784,170.845 119.603,170.875 119.436 C 170.905 119.269,170.978 119.084,171.038 119.025 C 171.097 118.965,171.146 118.812,171.146 118.683 C 171.146 118.555,171.193 118.421,171.250 118.385 C 171.307 118.350,171.354 118.186,171.354 118.021 C 171.354 117.856,171.401 117.692,171.458 117.656 C 171.516 117.621,171.563 117.480,171.563 117.344 C 171.563 117.207,171.609 117.067,171.667 117.031 C 171.724 116.996,171.771 116.832,171.771 116.667 C 171.771 116.502,171.818 116.337,171.875 116.302 C 171.932 116.267,171.979 116.126,171.979 115.990 C 171.979 115.853,172.026 115.712,172.083 115.677 C 172.141 115.642,172.188 115.478,172.188 115.313 C 172.188 115.147,172.234 114.983,172.292 114.948 C 172.349 114.913,172.396 114.772,172.396 114.635 C 172.396 114.499,172.437 114.362,172.488 114.330 C 172.539 114.299,172.604 114.144,172.632 113.986 C 172.679 113.730,172.753 113.499,173.025 112.760 C 173.067 112.646,173.158 112.341,173.227 112.083 C 173.297 111.826,173.396 111.533,173.448 111.434 C 173.499 111.334,173.542 111.135,173.542 110.991 C 173.542 110.847,173.589 110.729,173.646 110.729 C 173.703 110.729,173.750 110.591,173.750 110.423 C 173.750 110.254,173.797 110.087,173.854 110.052 C 173.911 110.017,173.958 109.873,173.958 109.732 C 173.958 109.591,174.001 109.395,174.052 109.295 C 174.104 109.196,174.203 108.904,174.271 108.646 C 174.340 108.388,174.462 108.053,174.542 107.901 C 174.622 107.749,174.688 107.529,174.688 107.412 C 174.688 107.295,174.734 107.171,174.792 107.135 C 174.849 107.100,174.896 106.936,174.896 106.771 C 174.896 106.606,174.943 106.442,175.000 106.406 C 175.057 106.371,175.104 106.207,175.104 106.042 C 175.104 105.877,175.151 105.712,175.208 105.677 C 175.266 105.642,175.313 105.478,175.313 105.313 C 175.313 105.147,175.359 104.983,175.417 104.948 C 175.474 104.913,175.521 104.772,175.521 104.635 C 175.521 104.499,175.568 104.358,175.625 104.323 C 175.682 104.288,175.729 104.123,175.729 103.958 C 175.729 103.793,175.776 103.629,175.833 103.594 C 175.891 103.558,175.937 103.414,175.938 103.274 C 175.938 103.133,175.978 102.937,176.028 102.837 C 176.154 102.583,176.371 101.957,176.397 101.771 C 176.409 101.685,176.475 101.512,176.543 101.387 C 176.611 101.262,176.667 101.065,176.667 100.950 C 176.667 100.836,176.714 100.712,176.771 100.677 C 176.828 100.642,176.875 100.478,176.875 100.313 C 176.875 100.147,176.922 99.983,176.979 99.948 C 177.036 99.913,177.083 99.748,177.083 99.583 C 177.083 99.418,177.130 99.254,177.188 99.219 C 177.245 99.183,177.292 99.043,177.292 98.906 C 177.292 98.770,177.339 98.629,177.396 98.594 C 177.453 98.558,177.500 98.394,177.500 98.229 C 177.500 98.064,177.547 97.900,177.604 97.865 C 177.661 97.829,177.708 97.665,177.708 97.500 C 177.708 97.335,177.755 97.171,177.813 97.135 C 177.870 97.100,177.917 96.936,177.917 96.771 C 177.917 96.606,177.958 96.445,178.009 96.414 C 178.060 96.382,178.124 96.227,178.153 96.069 C 178.209 95.760,178.409 95.165,178.556 94.871 C 178.605 94.772,178.646 94.575,178.646 94.435 C 178.646 94.294,178.693 94.150,178.750 94.115 C 178.807 94.079,178.854 93.939,178.854 93.802 C 178.854 93.666,178.901 93.525,178.958 93.490 C 179.016 93.454,179.063 93.290,179.063 93.125 C 179.063 92.960,179.109 92.796,179.167 92.760 C 179.224 92.725,179.271 92.561,179.271 92.396 C 179.271 92.231,179.318 92.067,179.375 92.031 C 179.432 91.996,179.479 91.832,179.479 91.667 C 179.479 91.502,179.526 91.337,179.583 91.302 C 179.641 91.267,179.688 91.146,179.688 91.034 C 179.688 90.922,179.730 90.749,179.782 90.650 C 179.834 90.550,180.003 90.047,180.158 89.531 C 180.312 89.016,180.481 88.512,180.532 88.413 C 180.583 88.313,180.625 88.117,180.625 87.976 C 180.625 87.836,180.672 87.692,180.729 87.656 C 180.786 87.621,180.833 87.457,180.833 87.292 C 180.833 87.127,180.880 86.962,180.937 86.927 C 180.995 86.892,181.042 86.728,181.042 86.563 C 181.042 86.397,181.089 86.233,181.146 86.198 C 181.203 86.163,181.250 86.022,181.250 85.885 C 181.250 85.749,181.297 85.608,181.354 85.573 C 181.411 85.538,181.458 85.373,181.458 85.208 C 181.458 85.043,181.505 84.879,181.563 84.844 C 181.620 84.808,181.667 84.670,181.667 84.537 C 181.667 84.404,181.735 84.164,181.818 84.004 C 181.901 83.844,181.945 83.674,181.916 83.627 C 181.887 83.580,181.936 83.438,182.025 83.310 C 182.114 83.183,182.188 82.975,182.188 82.848 C 182.188 82.720,182.234 82.587,182.292 82.552 C 182.349 82.517,182.396 82.353,182.396 82.188 C 182.396 82.022,182.443 81.858,182.500 81.823 C 182.557 81.788,182.604 81.623,182.604 81.458 C 182.604 81.293,182.651 81.129,182.708 81.094 C 182.766 81.058,182.813 80.918,182.813 80.781 C 182.813 80.645,182.859 80.504,182.917 80.469 C 182.974 80.433,183.021 80.269,183.021 80.104 C 183.021 79.939,183.068 79.775,183.125 79.740 C 183.182 79.704,183.229 79.540,183.229 79.375 C 183.229 79.210,183.276 79.046,183.333 79.010 C 183.391 78.975,183.438 78.811,183.438 78.646 C 183.438 78.481,183.479 78.320,183.530 78.289 C 183.580 78.257,183.645 78.102,183.674 77.944 C 183.730 77.635,183.930 77.040,184.076 76.746 C 184.126 76.647,184.167 76.445,184.167 76.297 C 184.167 76.150,184.204 76.052,184.249 76.080 C 184.295 76.108,184.343 75.983,184.357 75.802 C 184.371 75.620,184.427 75.427,184.483 75.371 C 184.538 75.316,184.583 75.178,184.583 75.065 C 184.583 74.843,184.760 74.227,184.909 73.934 C 184.959 73.834,185.000 73.658,185.000 73.542 C 185.000 73.426,185.042 73.249,185.094 73.150 C 185.146 73.050,185.244 72.758,185.312 72.500 C 185.381 72.242,185.505 71.873,185.587 71.680 C 185.670 71.487,185.714 71.305,185.685 71.276 C 185.656 71.246,185.701 71.125,185.785 71.005 C 185.869 70.885,185.938 70.660,185.938 70.504 C 185.938 70.348,185.984 70.192,186.042 70.156 C 186.099 70.121,186.146 69.957,186.146 69.792 C 186.146 69.627,186.193 69.462,186.250 69.427 C 186.307 69.392,186.354 69.251,186.354 69.115 C 186.354 68.978,186.401 68.837,186.458 68.802 C 186.516 68.767,186.563 68.603,186.563 68.438 C 186.563 68.272,186.609 68.108,186.667 68.073 C 186.724 68.038,186.771 67.909,186.771 67.788 C 186.771 67.584,186.895 67.124,187.087 66.615 C 187.130 66.500,187.292 65.984,187.448 65.469 C 187.603 64.953,187.772 64.450,187.824 64.350 C 187.875 64.251,187.917 64.054,187.917 63.914 C 187.917 63.773,187.964 63.629,188.021 63.594 C 188.078 63.558,188.125 63.394,188.125 63.229 C 188.125 63.064,188.172 62.900,188.229 62.865 C 188.286 62.829,188.333 62.665,188.333 62.500 C 188.333 62.335,188.380 62.171,188.438 62.135 C 188.495 62.100,188.542 61.930,188.542 61.759 C 188.542 61.587,188.579 61.469,188.625 61.498 C 188.671 61.526,188.720 61.376,188.734 61.165 C 188.748 60.954,188.805 60.737,188.859 60.682 C 188.914 60.628,188.958 60.455,188.958 60.298 C 188.958 60.141,189.005 59.983,189.063 59.948 C 189.120 59.913,189.168 59.781,189.170 59.655 C 189.172 59.530,189.242 59.336,189.326 59.225 C 189.410 59.114,189.479 58.894,189.479 58.736 C 189.479 58.579,189.526 58.421,189.583 58.385 C 189.641 58.350,189.688 58.180,189.688 58.009 C 189.688 57.837,189.725 57.719,189.771 57.748 C 189.817 57.776,189.866 57.626,189.880 57.415 C 189.894 57.204,189.950 56.987,190.005 56.932 C 190.060 56.878,190.104 56.705,190.104 56.548 C 190.104 56.391,190.151 56.233,190.208 56.198 C 190.266 56.163,190.313 55.998,190.313 55.833 C 190.313 55.668,190.359 55.504,190.417 55.469 C 190.474 55.433,190.521 55.269,190.521 55.104 C 190.521 54.939,190.568 54.775,190.625 54.740 C 190.682 54.704,190.729 54.540,190.729 54.375 C 190.729 54.210,190.771 54.049,190.821 54.018 C 190.872 53.987,190.937 53.831,190.966 53.673 C 191.022 53.364,191.222 52.769,191.368 52.475 C 191.418 52.376,191.458 52.179,191.458 52.039 C 191.458 51.898,191.505 51.754,191.563 51.719 C 191.620 51.683,191.667 51.519,191.667 51.354 C 191.667 51.189,191.714 51.025,191.771 50.990 C 191.828 50.954,191.875 50.790,191.875 50.625 C 191.875 50.460,191.922 50.296,191.979 50.260 C 192.036 50.225,192.083 50.061,192.083 49.896 C 192.083 49.731,192.130 49.567,192.188 49.531 C 192.245 49.496,192.292 49.308,192.292 49.115 C 192.292 48.921,192.339 48.733,192.396 48.698 C 192.453 48.663,192.500 48.498,192.500 48.333 C 192.500 48.168,192.547 48.004,192.604 47.969 C 192.736 47.887,192.741 46.413,192.611 46.170 C 192.557 46.071,192.452 45.837,192.377 45.651 C 192.302 45.465,192.205 45.313,192.162 45.313 C 192.119 45.313,192.083 45.236,192.083 45.141 C 192.083 44.936,190.308 43.171,190.005 43.075 C 189.888 43.037,189.792 42.970,189.792 42.925 C 189.792 42.880,189.382 42.644,188.880 42.400 C 188.379 42.157,187.887 41.916,187.788 41.864 C 187.688 41.813,187.515 41.771,187.403 41.771 C 187.291 41.771,187.171 41.724,187.135 41.667 C 187.100 41.609,186.966 41.563,186.838 41.563 C 186.709 41.563,186.553 41.511,186.490 41.448 C 186.427 41.385,186.208 41.317,186.004 41.298 C 185.800 41.278,185.549 41.220,185.447 41.168 C 185.344 41.117,185.003 41.063,184.689 41.049 C 184.375 41.035,184.070 40.994,184.012 40.958 C 183.830 40.846,181.042 40.852,180.695 40.966 C 179.820 41.252,179.170 41.734,178.799 42.370 C 178.690 42.556,178.564 42.708,178.519 42.708 C 178.474 42.708,178.438 42.802,178.438 42.917 C 178.438 43.031,178.391 43.125,178.333 43.125 C 178.276 43.125,178.229 43.219,178.229 43.333 C 178.229 43.448,178.182 43.542,178.125 43.542 C 178.068 43.542,178.021 43.633,178.021 43.744 C 178.021 43.855,177.974 43.975,177.917 44.010 C 177.859 44.046,177.813 44.166,177.813 44.277 C 177.813 44.388,177.766 44.479,177.708 44.479 C 177.651 44.479,177.604 44.564,177.604 44.668 C 177.604 44.772,177.501 45.065,177.375 45.319 C 177.249 45.573,177.157 45.822,177.171 45.871 C 177.184 45.921,177.123 46.072,177.035 46.206 C 176.947 46.341,176.875 46.544,176.875 46.657 C 176.875 46.770,176.828 46.892,176.771 46.927 C 176.714 46.962,176.667 47.103,176.667 47.240 C 176.667 47.376,176.620 47.517,176.563 47.552 C 176.505 47.587,176.458 47.752,176.458 47.917 C 176.458 48.082,176.411 48.246,176.354 48.281 C 176.297 48.317,176.250 48.460,176.250 48.600 C 176.250 48.740,176.203 48.854,176.146 48.854 C 176.089 48.854,176.042 48.992,176.042 49.161 C 176.042 49.329,175.995 49.496,175.938 49.531 C 175.880 49.567,175.833 49.724,175.833 49.881 C 175.833 50.038,175.794 50.211,175.747 50.266 C 175.666 50.358,175.415 51.113,175.353 51.454 C 175.337 51.537,175.281 51.701,175.229 51.818 C 175.057 52.200,174.896 52.770,174.896 52.996 C 174.896 53.117,174.849 53.246,174.792 53.281 C 174.734 53.317,174.688 53.481,174.688 53.646 C 174.688 53.811,174.641 53.975,174.583 54.010 C 174.526 54.046,174.479 54.210,174.479 54.375 C 174.479 54.540,174.432 54.704,174.375 54.740 C 174.318 54.775,174.271 54.942,174.271 55.112 C 174.271 55.281,174.230 55.501,174.179 55.600 C 174.031 55.894,173.854 56.509,173.854 56.731 C 173.854 56.845,173.810 56.982,173.756 57.036 C 173.702 57.091,173.636 57.260,173.609 57.413 C 173.581 57.565,173.504 57.792,173.438 57.916 C 173.372 58.040,173.341 58.203,173.370 58.279 C 173.399 58.355,173.358 58.504,173.277 58.610 C 173.197 58.715,173.130 58.928,173.128 59.082 C 173.126 59.237,173.078 59.392,173.021 59.427 C 172.964 59.462,172.917 59.627,172.917 59.792 C 172.917 59.957,172.870 60.121,172.813 60.156 C 172.755 60.192,172.708 60.379,172.708 60.573 C 172.708 60.767,172.661 60.954,172.604 60.990 C 172.547 61.025,172.500 61.189,172.500 61.354 C 172.500 61.519,172.458 61.680,172.407 61.712 C 172.356 61.743,172.289 61.922,172.259 62.108 C 172.165 62.674,172.072 63.062,171.979 63.281 C 171.849 63.584,171.664 64.209,171.603 64.549 C 171.574 64.711,171.506 64.888,171.452 64.943 C 171.398 64.997,171.354 65.170,171.354 65.327 C 171.354 65.484,171.307 65.642,171.250 65.677 C 171.193 65.712,171.146 65.900,171.146 66.094 C 171.146 66.288,171.099 66.475,171.042 66.510 C 170.984 66.546,170.938 66.710,170.938 66.875 C 170.938 67.040,170.891 67.204,170.833 67.240 C 170.776 67.275,170.729 67.462,170.729 67.656 C 170.729 67.850,170.682 68.038,170.625 68.073 C 170.568 68.108,170.521 68.272,170.521 68.438 C 170.521 68.603,170.474 68.767,170.417 68.802 C 170.359 68.837,170.313 69.005,170.313 69.174 C 170.313 69.343,170.272 69.563,170.222 69.663 C 170.065 69.978,169.871 70.565,169.850 70.787 C 169.839 70.904,169.790 71.064,169.741 71.143 C 169.693 71.222,169.617 71.454,169.573 71.659 C 169.529 71.864,169.440 72.219,169.375 72.448 C 169.187 73.113,169.052 73.672,168.991 74.037 C 168.961 74.224,168.894 74.403,168.843 74.434 C 168.792 74.466,168.750 74.627,168.750 74.792 C 168.750 74.957,168.703 75.121,168.646 75.156 C 168.589 75.192,168.542 75.356,168.542 75.521 C 168.542 75.686,168.495 75.850,168.438 75.885 C 168.380 75.921,168.333 76.102,168.333 76.287 C 168.333 76.473,168.281 76.677,168.218 76.741 C 168.154 76.804,168.091 76.999,168.077 77.175 C 168.063 77.350,167.993 77.564,167.921 77.651 C 167.848 77.739,167.813 77.871,167.841 77.946 C 167.870 78.020,167.828 78.171,167.749 78.279 C 167.669 78.388,167.604 78.632,167.604 78.822 C 167.604 79.012,167.557 79.167,167.500 79.167 C 167.443 79.167,167.396 79.328,167.396 79.525 C 167.396 79.722,167.349 79.913,167.292 79.948 C 167.234 79.983,167.188 80.147,167.188 80.313 C 167.188 80.478,167.141 80.642,167.083 80.677 C 167.026 80.712,166.979 80.900,166.979 81.094 C 166.979 81.288,166.932 81.475,166.875 81.510 C 166.818 81.546,166.771 81.710,166.771 81.875 C 166.771 82.040,166.724 82.204,166.667 82.240 C 166.609 82.275,166.561 82.430,166.559 82.584 C 166.557 82.738,166.492 82.979,166.414 83.120 C 166.336 83.260,166.298 83.441,166.329 83.521 C 166.359 83.601,166.333 83.698,166.271 83.737 C 166.208 83.776,166.130 83.970,166.098 84.169 C 166.065 84.368,165.997 84.625,165.948 84.740 C 165.898 84.854,165.802 85.159,165.734 85.417 C 165.666 85.674,165.567 86.029,165.514 86.205 C 165.460 86.381,165.417 86.625,165.417 86.746 C 165.417 86.867,165.370 86.996,165.313 87.031 C 165.255 87.067,165.208 87.231,165.208 87.396 C 165.208 87.561,165.167 87.722,165.116 87.753 C 165.065 87.785,164.997 87.963,164.964 88.150 C 164.825 88.960,164.760 89.225,164.680 89.327 C 164.633 89.387,164.566 89.594,164.532 89.787 C 164.498 89.981,164.438 90.190,164.400 90.252 C 164.361 90.314,164.323 90.468,164.316 90.595 C 164.309 90.721,164.255 90.885,164.196 90.959 C 164.137 91.033,164.063 91.234,164.032 91.406 C 164.001 91.578,163.920 91.906,163.853 92.135 C 163.786 92.365,163.706 92.705,163.677 92.892 C 163.647 93.078,163.581 93.257,163.530 93.288 C 163.479 93.320,163.438 93.481,163.438 93.646 C 163.438 93.811,163.391 93.975,163.333 94.010 C 163.276 94.046,163.229 94.233,163.229 94.427 C 163.229 94.621,163.182 94.808,163.125 94.844 C 163.068 94.879,163.021 95.037,163.021 95.194 C 163.021 95.351,162.974 95.526,162.917 95.583 C 162.860 95.640,162.796 95.836,162.775 96.019 C 162.753 96.202,162.683 96.415,162.619 96.493 C 162.554 96.570,162.529 96.661,162.562 96.694 C 162.595 96.727,162.542 96.921,162.445 97.126 C 162.348 97.331,162.295 97.566,162.326 97.648 C 162.358 97.730,162.316 97.853,162.233 97.922 C 162.151 97.990,162.083 98.143,162.083 98.261 C 162.083 98.490,161.908 99.102,161.758 99.400 C 161.708 99.499,161.667 99.719,161.667 99.888 C 161.667 100.058,161.620 100.225,161.563 100.260 C 161.505 100.296,161.458 100.460,161.458 100.625 C 161.458 100.790,161.411 100.954,161.354 100.990 C 161.297 101.025,161.250 101.189,161.250 101.354 C 161.250 101.519,161.203 101.683,161.146 101.719 C 161.089 101.754,161.040 101.933,161.038 102.116 C 161.037 102.298,160.968 102.537,160.885 102.646 C 160.803 102.754,160.760 102.882,160.789 102.930 C 160.819 102.978,160.786 103.123,160.717 103.253 C 160.647 103.383,160.582 103.583,160.573 103.698 C 160.563 103.812,160.505 104.023,160.445 104.167 C 160.384 104.310,160.276 104.638,160.205 104.896 C 159.955 105.806,159.868 106.096,159.778 106.333 C 159.728 106.465,159.686 106.652,159.685 106.750 C 159.684 106.847,159.596 107.041,159.489 107.180 L 159.295 107.432 159.022 107.138 C 158.873 106.977,158.750 106.737,158.750 106.606 C 158.750 106.474,158.703 106.337,158.646 106.302 C 158.589 106.267,158.542 106.126,158.542 105.990 C 158.542 105.853,158.495 105.712,158.438 105.677 C 158.380 105.642,158.333 105.478,158.333 105.313 C 158.333 105.147,158.292 104.987,158.241 104.955 C 158.190 104.924,158.126 104.769,158.097 104.611 C 158.041 104.301,157.841 103.707,157.694 103.413 C 157.645 103.313,157.604 103.117,157.604 102.976 C 157.604 102.836,157.557 102.692,157.500 102.656 C 157.443 102.621,157.396 102.457,157.396 102.292 C 157.396 102.127,157.349 101.962,157.292 101.927 C 157.234 101.892,157.188 101.728,157.188 101.563 C 157.188 101.397,157.141 101.233,157.083 101.198 C 157.026 101.163,156.979 100.998,156.979 100.833 C 156.979 100.668,156.932 100.504,156.875 100.469 C 156.818 100.433,156.771 100.269,156.771 100.104 C 156.771 99.939,156.724 99.775,156.667 99.740 C 156.609 99.704,156.563 99.576,156.563 99.454 C 156.563 99.188,156.387 98.598,156.187 98.195 C 156.107 98.032,156.042 97.789,156.042 97.654 C 156.042 97.519,155.995 97.379,155.938 97.344 C 155.880 97.308,155.833 97.144,155.833 96.979 C 155.833 96.814,155.786 96.650,155.729 96.615 C 155.672 96.579,155.625 96.415,155.625 96.250 C 155.625 96.085,155.578 95.921,155.521 95.885 C 155.464 95.850,155.417 95.663,155.417 95.469 C 155.417 95.275,155.370 95.087,155.313 95.052 C 155.255 95.017,155.208 94.853,155.208 94.688 C 155.208 94.522,155.161 94.358,155.104 94.323 C 155.047 94.288,155.000 94.123,155.000 93.958 C 155.000 93.793,154.953 93.629,154.896 93.594 C 154.839 93.558,154.792 93.394,154.792 93.229 C 154.792 93.064,154.745 92.900,154.688 92.865 C 154.630 92.829,154.583 92.673,154.583 92.517 C 154.583 92.361,154.510 92.130,154.421 92.002 C 154.332 91.875,154.283 91.732,154.312 91.685 C 154.341 91.638,154.296 91.469,154.213 91.309 C 154.130 91.149,154.063 90.909,154.063 90.775 C 154.063 90.642,154.016 90.504,153.958 90.469 C 153.901 90.433,153.854 90.269,153.854 90.104 C 153.854 89.939,153.807 89.775,153.750 89.740 C 153.693 89.704,153.646 89.517,153.646 89.323 C 153.646 89.129,153.599 88.942,153.542 88.906 C 153.484 88.871,153.438 88.707,153.438 88.542 C 153.438 88.377,153.391 88.212,153.333 88.177 C 153.276 88.142,153.229 87.978,153.229 87.813 C 153.229 87.647,153.182 87.483,153.125 87.448 C 153.068 87.413,153.021 87.248,153.021 87.083 C 153.021 86.918,152.974 86.754,152.917 86.719 C 152.859 86.683,152.813 86.538,152.813 86.395 C 152.813 86.252,152.744 86.003,152.660 85.841 C 152.577 85.680,152.533 85.522,152.564 85.492 C 152.595 85.461,152.546 85.293,152.456 85.119 C 152.365 84.945,152.292 84.685,152.292 84.543 C 152.292 84.400,152.245 84.254,152.188 84.219 C 152.130 84.183,152.083 84.019,152.083 83.854 C 152.083 83.689,152.036 83.525,151.979 83.490 C 151.922 83.454,151.875 83.290,151.875 83.125 C 151.875 82.960,151.833 82.799,151.782 82.768 C 151.731 82.736,151.661 82.546,151.626 82.345 C 151.591 82.144,151.534 81.815,151.499 81.614 C 151.464 81.413,151.394 81.222,151.343 81.191 C 151.292 81.159,151.250 80.998,151.250 80.833 C 151.250 80.668,151.203 80.504,151.146 80.469 C 151.089 80.433,151.042 80.305,151.042 80.184 C 151.042 79.941,150.888 79.408,150.665 78.877 C 150.586 78.689,150.521 78.419,150.521 78.278 C 150.521 78.136,150.474 78.021,150.417 78.021 C 150.359 78.021,150.313 77.860,150.313 77.662 C 150.313 77.465,150.266 77.275,150.208 77.240 C 150.151 77.204,150.104 77.040,150.104 76.875 C 150.104 76.710,150.057 76.546,150.000 76.510 C 149.943 76.475,149.896 76.311,149.896 76.146 C 149.896 75.981,149.849 75.817,149.792 75.781 C 149.734 75.746,149.688 75.558,149.688 75.365 C 149.688 75.171,149.641 74.983,149.583 74.948 C 149.526 74.913,149.479 74.748,149.479 74.583 C 149.479 74.418,149.432 74.254,149.375 74.219 C 149.318 74.183,149.271 74.019,149.271 73.854 C 149.271 73.689,149.224 73.525,149.167 73.490 C 149.109 73.454,149.063 73.308,149.063 73.164 C 149.063 73.020,149.012 72.808,148.950 72.692 C 148.888 72.577,148.815 72.358,148.787 72.208 C 148.760 72.057,148.699 71.885,148.653 71.826 C 148.573 71.725,148.509 71.458,148.369 70.650 C 148.337 70.463,148.269 70.285,148.218 70.253 C 148.167 70.222,148.125 70.061,148.125 69.896 C 148.125 69.731,148.078 69.567,148.021 69.531 C 147.964 69.496,147.917 69.332,147.917 69.167 C 147.917 69.002,147.870 68.837,147.813 68.802 C 147.755 68.767,147.708 68.579,147.708 68.385 C 147.708 68.192,147.661 68.004,147.604 67.969 C 147.547 67.933,147.500 67.769,147.500 67.604 C 147.500 67.439,147.453 67.275,147.396 67.240 C 147.339 67.204,147.292 67.046,147.292 66.889 C 147.292 66.731,147.227 66.513,147.147 66.404 C 147.067 66.296,147.024 66.150,147.050 66.081 C 147.077 66.013,147.025 65.814,146.935 65.640 C 146.845 65.465,146.771 65.206,146.771 65.063 C 146.771 64.921,146.724 64.775,146.667 64.740 C 146.609 64.704,146.563 64.540,146.563 64.375 C 146.563 64.210,146.516 64.046,146.458 64.010 C 146.401 63.975,146.354 63.811,146.354 63.646 C 146.354 63.481,146.307 63.317,146.250 63.281 C 146.193 63.246,146.146 63.058,146.146 62.865 C 146.146 62.671,146.099 62.483,146.042 62.448 C 145.984 62.413,145.938 62.248,145.938 62.083 C 145.938 61.918,145.891 61.754,145.833 61.719 C 145.776 61.683,145.729 61.516,145.729 61.347 C 145.729 61.177,145.688 60.957,145.638 60.858 C 145.489 60.564,145.313 59.949,145.313 59.726 C 145.313 59.612,145.244 59.428,145.160 59.317 C 145.075 59.206,145.005 59.024,145.003 58.914 C 145.000 58.693,144.819 58.073,144.675 57.788 C 144.624 57.688,144.583 57.468,144.583 57.299 C 144.583 57.130,144.536 56.962,144.479 56.927 C 144.422 56.892,144.375 56.728,144.375 56.563 C 144.375 56.397,144.328 56.233,144.271 56.198 C 144.214 56.163,144.167 55.975,144.167 55.781 C 144.167 55.587,144.120 55.400,144.063 55.365 C 144.005 55.329,143.958 55.165,143.958 55.000 C 143.958 54.835,143.911 54.671,143.854 54.635 C 143.797 54.600,143.750 54.459,143.750 54.322 C 143.750 54.185,143.708 53.965,143.657 53.833 C 143.606 53.701,143.483 53.313,143.384 52.969 C 143.284 52.625,143.162 52.262,143.112 52.163 C 143.062 52.063,143.021 51.867,143.021 51.726 C 143.021 51.586,142.974 51.442,142.917 51.406 C 142.859 51.371,142.813 51.207,142.813 51.042 C 142.813 50.877,142.766 50.712,142.708 50.677 C 142.651 50.642,142.604 50.454,142.604 50.260 C 142.604 50.067,142.557 49.879,142.500 49.844 C 142.443 49.808,142.396 49.644,142.396 49.479 C 142.396 49.314,142.349 49.150,142.292 49.115 C 142.234 49.079,142.188 48.912,142.188 48.742 C 142.188 48.573,142.146 48.353,142.096 48.254 C 141.948 47.961,141.771 47.345,141.771 47.125 C 141.771 47.013,141.702 46.823,141.618 46.704 C 141.534 46.584,141.490 46.461,141.520 46.431 C 141.550 46.401,141.502 46.202,141.412 45.988 C 141.323 45.774,141.250 45.488,141.250 45.352 C 141.250 45.216,141.208 45.104,141.157 45.104 C 141.106 45.104,141.038 44.952,141.006 44.766 C 140.870 43.981,140.805 43.750,140.717 43.750 C 140.667 43.750,140.625 43.685,140.625 43.606 C 140.625 43.237,139.745 41.979,139.487 41.979 C 139.425 41.979,139.375 41.944,139.375 41.900 C 139.375 41.857,139.223 41.756,139.036 41.677 C 138.850 41.597,138.634 41.481,138.556 41.420 C 138.477 41.359,138.304 41.303,138.169 41.296 C 138.035 41.288,137.865 41.237,137.791 41.180 C 137.717 41.124,137.445 41.068,137.188 41.056 C 136.930 41.044,136.578 41.005,136.406 40.970 C 135.937 40.874,134.873 40.863,134.545 40.950 M204.988 40.982 C 204.770 41.156,203.837 42.194,203.542 42.593 C 203.398 42.786,203.117 43.114,202.917 43.322 C 202.716 43.530,202.493 43.804,202.422 43.932 C 202.318 44.116,202.294 52.503,202.302 84.973 L 202.313 125.781 203.268 126.667 C 203.794 127.154,204.363 127.622,204.533 127.708 C 204.704 127.794,204.867 127.888,204.896 127.917 C 204.952 127.973,205.380 128.174,205.755 128.320 C 205.884 128.371,206.130 128.469,206.302 128.540 C 206.474 128.611,206.755 128.692,206.927 128.719 C 207.099 128.747,207.286 128.806,207.344 128.851 C 207.628 129.072,211.907 129.264,212.032 129.061 C 212.067 129.004,212.321 128.958,212.598 128.958 C 212.889 128.958,213.148 128.900,213.215 128.819 C 213.278 128.743,213.436 128.689,213.566 128.699 C 213.696 128.709,213.917 128.643,214.058 128.551 C 214.199 128.460,214.318 128.409,214.324 128.438 C 214.381 128.737,215.996 127.623,217.041 126.563 L 217.913 125.677 217.915 121.586 C 217.916 119.336,217.963 116.336,218.020 114.920 C 218.077 113.503,218.147 109.906,218.175 106.927 C 218.204 103.948,218.256 99.624,218.292 97.318 L 218.356 93.125 223.290 93.125 L 228.224 93.125 228.396 93.464 C 228.490 93.650,228.618 93.865,228.680 93.943 C 228.742 94.020,228.804 94.160,228.818 94.253 C 228.832 94.347,228.892 94.440,228.953 94.460 C 229.013 94.480,229.063 94.586,229.063 94.696 C 229.063 94.806,229.109 94.896,229.167 94.896 C 229.224 94.896,229.271 94.990,229.271 95.104 C 229.271 95.219,229.318 95.313,229.375 95.313 C 229.432 95.313,229.479 95.375,229.479 95.451 C 229.479 95.612,229.906 96.480,230.101 96.714 C 230.174 96.803,230.197 96.875,230.153 96.875 C 230.108 96.875,230.150 96.961,230.244 97.066 C 230.339 97.171,230.392 97.281,230.362 97.311 C 230.332 97.341,230.379 97.425,230.466 97.498 C 230.554 97.570,230.625 97.714,230.625 97.817 C 230.625 97.919,230.660 98.019,230.703 98.038 C 230.746 98.057,231.070 98.635,231.424 99.323 C 231.777 100.010,232.199 100.831,232.361 101.146 C 232.523 101.461,232.691 101.734,232.734 101.753 C 232.777 101.773,232.813 101.878,232.813 101.988 C 232.813 102.098,232.859 102.188,232.917 102.188 C 232.974 102.188,233.021 102.281,233.021 102.396 C 233.021 102.510,233.068 102.604,233.125 102.604 C 233.182 102.604,233.229 102.698,233.229 102.813 C 233.229 102.927,233.276 103.021,233.333 103.021 C 233.391 103.021,233.438 103.092,233.438 103.178 C 233.438 103.350,233.612 103.695,233.844 103.984 C 233.925 104.085,233.953 104.167,233.906 104.167 C 233.860 104.167,233.907 104.260,234.010 104.375 C 234.114 104.490,234.163 104.583,234.118 104.583 C 234.073 104.583,234.093 104.651,234.163 104.735 C 234.232 104.818,234.664 105.626,235.123 106.531 C 235.583 107.437,236.001 108.193,236.053 108.212 C 236.105 108.231,236.124 108.285,236.096 108.330 C 236.067 108.376,236.114 108.472,236.199 108.543 C 236.284 108.613,236.354 108.759,236.354 108.867 C 236.354 108.974,236.401 109.063,236.458 109.063 C 236.516 109.063,236.563 109.156,236.563 109.271 C 236.563 109.385,236.609 109.479,236.667 109.479 C 236.724 109.479,236.771 109.573,236.771 109.688 C 236.771 109.802,236.818 109.896,236.875 109.896 C 236.932 109.896,236.979 109.967,236.979 110.053 C 236.979 110.225,237.153 110.570,237.386 110.859 C 237.466 110.960,237.494 111.042,237.448 111.042 C 237.402 111.042,237.448 111.135,237.552 111.250 C 237.656 111.365,237.703 111.458,237.656 111.458 C 237.610 111.458,237.642 111.540,237.729 111.641 C 237.815 111.741,238.139 112.339,238.448 112.969 C 238.757 113.599,239.046 114.130,239.089 114.149 C 239.132 114.168,239.167 114.274,239.167 114.384 C 239.167 114.493,239.214 114.583,239.271 114.583 C 239.328 114.583,239.375 114.648,239.375 114.727 C 239.375 114.806,239.446 114.930,239.534 115.002 C 239.621 115.075,239.668 115.158,239.639 115.188 C 239.609 115.217,239.641 115.309,239.710 115.392 C 239.778 115.474,239.846 115.618,239.860 115.712 C 239.873 115.805,239.934 115.898,239.994 115.918 C 240.055 115.938,240.104 116.045,240.104 116.155 C 240.104 116.264,240.151 116.354,240.208 116.354 C 240.266 116.354,240.313 116.448,240.313 116.563 C 240.313 116.677,240.359 116.771,240.417 116.771 C 240.474 116.771,240.521 116.861,240.521 116.970 C 240.521 117.080,240.556 117.186,240.599 117.205 C 240.669 117.236,240.992 117.818,241.686 119.167 C 241.819 119.424,241.962 119.651,242.005 119.670 C 242.048 119.689,242.083 119.795,242.083 119.905 C 242.083 120.014,242.130 120.104,242.188 120.104 C 242.245 120.104,242.292 120.198,242.292 120.313 C 242.292 120.427,242.339 120.521,242.396 120.521 C 242.453 120.521,242.500 120.615,242.500 120.729 C 242.500 120.844,242.541 120.938,242.592 120.938 C 242.643 120.938,242.712 121.020,242.745 121.120 C 242.820 121.343,243.154 121.920,243.332 122.134 C 243.404 122.221,243.427 122.292,243.382 122.292 C 243.337 122.292,243.369 122.374,243.452 122.474 C 243.536 122.574,243.765 122.973,243.962 123.359 C 244.159 123.746,244.356 124.063,244.400 124.063 C 244.444 124.063,244.479 124.156,244.479 124.271 C 244.479 124.385,244.515 124.479,244.559 124.479 C 244.603 124.479,244.715 124.655,244.810 124.870 C 244.904 125.085,245.079 125.364,245.199 125.490 C 245.319 125.617,245.417 125.771,245.417 125.833 C 245.417 125.895,245.510 126.047,245.625 126.170 C 245.740 126.293,245.833 126.455,245.833 126.530 C 245.833 126.605,245.880 126.667,245.938 126.667 C 245.995 126.667,246.042 126.737,246.042 126.823 C 246.042 126.909,246.089 126.979,246.146 126.979 C 246.203 126.979,246.250 127.029,246.250 127.090 C 246.250 127.214,246.736 127.833,247.292 128.419 C 247.709 128.858,248.465 129.375,248.690 129.375 C 248.773 129.375,248.868 129.417,248.899 129.468 C 249.031 129.681,251.617 129.883,251.805 129.695 C 251.866 129.634,252.115 129.583,252.358 129.583 C 252.601 129.583,252.829 129.536,252.865 129.479 C 252.900 129.422,253.067 129.375,253.235 129.375 C 253.404 129.375,253.542 129.328,253.542 129.271 C 253.542 129.214,253.656 129.167,253.796 129.167 C 253.936 129.167,254.079 129.120,254.115 129.063 C 254.150 129.005,254.242 128.958,254.319 128.958 C 254.396 128.958,254.757 128.788,255.120 128.580 C 255.484 128.371,255.957 128.105,256.172 127.987 C 256.387 127.870,256.563 127.736,256.563 127.689 C 256.563 127.642,256.636 127.604,256.726 127.604 C 256.928 127.604,259.479 125.062,259.479 124.860 C 259.479 124.779,259.549 124.655,259.633 124.585 C 259.816 124.433,260.104 123.881,260.104 123.682 C 260.104 123.605,260.151 123.542,260.208 123.542 C 260.266 123.542,260.313 123.404,260.313 123.235 C 260.313 123.067,260.359 122.900,260.417 122.865 C 260.475 122.829,260.521 122.345,260.521 121.771 C 260.521 121.197,260.475 120.713,260.417 120.677 C 260.359 120.642,260.313 120.522,260.313 120.411 C 260.313 120.299,260.266 120.208,260.208 120.208 C 260.151 120.208,260.104 120.145,260.104 120.068 C 260.104 119.990,259.921 119.580,259.696 119.156 C 259.472 118.732,259.000 117.823,258.648 117.135 C 257.743 115.369,257.418 114.773,257.295 114.649 C 257.236 114.590,257.188 114.457,257.188 114.354 C 257.188 114.251,257.141 114.167,257.083 114.167 C 257.026 114.167,256.979 114.073,256.979 113.958 C 256.979 113.844,256.932 113.750,256.875 113.750 C 256.818 113.750,256.771 113.660,256.771 113.550 C 256.771 113.441,256.734 113.335,256.689 113.316 C 256.644 113.297,256.478 113.023,256.320 112.708 C 255.954 111.977,255.684 111.498,255.535 111.320 C 255.471 111.242,255.443 111.155,255.472 111.125 C 255.502 111.096,255.454 111.012,255.367 110.940 C 255.280 110.867,255.208 110.720,255.208 110.612 C 255.208 110.505,255.161 110.417,255.104 110.417 C 255.047 110.417,255.000 110.327,255.000 110.217 C 255.000 110.107,254.965 110.002,254.922 109.983 C 254.849 109.950,254.681 109.656,254.116 108.572 C 253.990 108.331,253.827 108.061,253.754 107.973 C 253.680 107.885,253.655 107.813,253.698 107.813 C 253.741 107.813,253.716 107.741,253.643 107.653 C 253.570 107.565,253.354 107.190,253.162 106.820 C 252.970 106.449,252.655 105.843,252.463 105.472 C 252.271 105.101,252.055 104.726,251.982 104.639 C 251.909 104.551,251.884 104.479,251.927 104.479 C 251.970 104.479,251.945 104.407,251.872 104.320 C 251.748 104.170,251.547 103.796,250.653 102.057 C 250.455 101.671,250.251 101.354,250.201 101.354 C 250.152 101.354,250.138 101.284,250.170 101.199 C 250.204 101.110,250.158 101.016,250.063 100.979 C 249.971 100.944,249.896 100.826,249.896 100.718 C 249.896 100.610,249.849 100.521,249.792 100.521 C 249.734 100.521,249.688 100.427,249.688 100.313 C 249.688 100.198,249.641 100.104,249.583 100.104 C 249.526 100.104,249.479 100.010,249.479 99.896 C 249.479 99.781,249.432 99.688,249.375 99.688 C 249.318 99.688,249.271 99.617,249.271 99.530 C 249.271 99.385,249.082 98.977,248.958 98.854 C 248.929 98.826,248.760 98.521,248.583 98.177 C 248.405 97.833,248.042 97.137,247.776 96.629 C 247.510 96.121,247.292 95.640,247.292 95.561 C 247.292 95.482,247.245 95.417,247.188 95.417 C 247.130 95.417,247.083 95.323,247.083 95.208 C 247.083 95.094,247.036 95.000,246.979 95.000 C 246.922 95.000,246.875 94.906,246.875 94.792 C 246.875 94.677,246.828 94.583,246.771 94.583 C 246.714 94.583,246.667 94.488,246.667 94.372 C 246.667 94.255,246.597 94.133,246.511 94.100 C 246.425 94.068,246.379 94.002,246.408 93.956 C 246.437 93.909,246.390 93.800,246.303 93.714 C 246.217 93.627,246.146 93.483,246.146 93.393 C 246.146 93.303,246.099 93.229,246.042 93.229 C 245.984 93.229,245.938 93.135,245.938 93.021 C 245.938 92.906,245.891 92.813,245.833 92.813 C 245.776 92.813,245.729 92.747,245.729 92.666 C 245.729 92.586,245.630 92.316,245.508 92.067 C 245.386 91.818,245.251 91.543,245.209 91.455 C 244.918 90.858,245.421 89.589,245.845 89.851 C 245.896 89.882,245.938 89.863,245.938 89.807 C 245.938 89.695,246.942 89.167,247.156 89.167 C 247.231 89.167,247.292 89.120,247.292 89.063 C 247.292 89.005,247.358 88.958,247.438 88.958 C 247.612 88.958,248.474 88.524,248.524 88.411 C 248.543 88.368,248.614 88.333,248.682 88.333 C 248.749 88.333,248.921 88.228,249.064 88.099 C 249.206 87.970,249.452 87.798,249.609 87.717 C 249.767 87.635,249.896 87.530,249.896 87.482 C 249.896 87.435,249.966 87.396,250.052 87.396 C 250.138 87.396,250.208 87.349,250.208 87.292 C 250.208 87.234,250.275 87.188,250.356 87.188 C 250.437 87.188,250.519 87.152,250.538 87.109 C 250.617 86.932,251.495 86.261,251.580 86.313 C 251.631 86.344,251.663 86.331,251.651 86.284 C 251.640 86.237,252.354 85.471,253.237 84.582 C 254.121 83.693,255.022 82.732,255.239 82.446 C 255.457 82.161,255.796 81.716,255.993 81.458 C 256.191 81.201,256.353 80.931,256.353 80.859 C 256.354 80.788,256.401 80.729,256.458 80.729 C 256.516 80.729,256.563 80.639,256.563 80.530 C 256.563 80.420,256.602 80.314,256.651 80.295 C 256.700 80.276,257.009 79.698,257.339 79.010 C 257.669 78.323,257.981 77.679,258.032 77.580 C 258.083 77.480,258.125 77.304,258.125 77.189 C 258.125 77.074,258.172 76.979,258.229 76.979 C 258.286 76.979,258.333 76.885,258.333 76.769 C 258.333 76.654,258.374 76.478,258.425 76.379 C 258.577 76.078,258.750 75.468,258.750 75.233 C 258.750 75.112,258.797 74.983,258.854 74.948 C 258.911 74.913,258.958 74.732,258.958 74.546 C 258.958 74.360,259.008 74.158,259.070 74.097 C 259.177 73.989,259.279 73.496,259.486 72.083 C 260.100 67.891,259.868 61.040,259.008 57.969 C 258.912 57.625,258.809 57.191,258.780 57.004 C 258.751 56.818,258.685 56.639,258.634 56.607 C 258.583 56.576,258.542 56.415,258.542 56.250 C 258.542 56.085,258.495 55.921,258.438 55.885 C 258.380 55.850,258.333 55.709,258.333 55.573 C 258.333 55.436,258.286 55.296,258.229 55.260 C 258.172 55.225,258.125 55.104,258.125 54.992 C 258.125 54.880,258.084 54.707,258.033 54.608 C 257.982 54.508,257.882 54.286,257.810 54.115 C 257.530 53.446,257.341 53.071,257.266 53.038 C 257.223 53.019,257.188 52.914,257.188 52.804 C 257.188 52.694,257.141 52.604,257.083 52.604 C 257.026 52.604,256.979 52.510,256.979 52.396 C 256.979 52.281,256.941 52.188,256.894 52.188 C 256.848 52.188,256.745 52.023,256.667 51.823 C 256.588 51.622,256.485 51.458,256.439 51.458 C 256.392 51.458,256.354 51.395,256.354 51.318 C 256.354 51.241,256.260 51.093,256.146 50.990 C 256.031 50.886,255.937 50.750,255.936 50.687 C 255.935 50.624,255.794 50.414,255.623 50.220 C 255.452 50.026,255.313 49.830,255.313 49.784 C 255.313 49.705,254.907 49.256,253.842 48.154 C 253.327 47.622,252.304 46.713,251.940 46.465 C 251.818 46.382,251.695 46.284,251.667 46.248 C 251.638 46.211,251.262 45.951,250.830 45.669 C 249.740 44.956,249.656 44.904,249.479 44.825 C 249.393 44.786,249.299 44.727,249.271 44.693 C 249.242 44.659,248.891 44.475,248.490 44.284 C 248.089 44.093,247.679 43.894,247.580 43.843 C 247.480 43.792,247.328 43.750,247.241 43.750 C 247.154 43.750,247.083 43.703,247.083 43.646 C 247.083 43.589,247.012 43.542,246.926 43.542 C 246.766 43.542,246.678 43.505,246.068 43.186 C 245.882 43.089,245.729 43.041,245.729 43.079 C 245.729 43.117,245.614 43.073,245.472 42.981 C 245.331 42.888,245.123 42.812,245.010 42.813 C 244.897 42.813,244.775 42.766,244.740 42.708 C 244.704 42.651,244.564 42.604,244.427 42.604 C 244.291 42.604,244.150 42.557,244.115 42.500 C 244.079 42.443,243.915 42.396,243.750 42.396 C 243.585 42.396,243.421 42.349,243.385 42.292 C 243.350 42.234,243.186 42.188,243.021 42.188 C 242.856 42.188,242.692 42.141,242.656 42.083 C 242.621 42.026,242.433 41.979,242.240 41.979 C 242.046 41.979,241.858 41.932,241.823 41.875 C 241.788 41.818,241.577 41.771,241.354 41.771 C 241.132 41.771,240.921 41.724,240.885 41.667 C 240.850 41.609,240.610 41.563,240.352 41.563 C 240.093 41.563,239.787 41.511,239.670 41.449 C 239.553 41.386,239.099 41.319,238.661 41.299 C 238.223 41.278,237.650 41.220,237.388 41.169 C 237.126 41.117,235.837 41.063,234.523 41.048 C 233.210 41.032,231.924 41.000,231.667 40.975 C 230.495 40.864,205.128 40.871,204.988 40.982 M234.617 55.143 C 235.351 55.179,236.040 55.256,236.146 55.313 C 236.253 55.370,236.461 55.417,236.609 55.417 C 236.757 55.417,236.971 55.464,237.085 55.521 C 237.199 55.578,237.385 55.672,237.499 55.729 C 237.612 55.786,237.776 55.833,237.863 55.833 C 237.950 55.833,238.021 55.869,238.021 55.912 C 238.021 55.955,238.173 56.056,238.359 56.136 C 238.722 56.292,239.717 56.975,239.774 57.108 C 239.793 57.152,239.867 57.188,239.937 57.188 C 240.105 57.188,241.576 58.718,241.764 59.089 C 241.845 59.246,241.949 59.375,241.997 59.375 C 242.044 59.375,242.083 59.469,242.083 59.583 C 242.083 59.698,242.123 59.792,242.171 59.792 C 242.252 59.792,242.611 60.463,242.826 61.016 C 243.171 61.905,243.337 62.400,243.395 62.708 C 243.422 62.852,243.473 63.039,243.508 63.125 C 243.791 63.809,243.978 69.647,243.744 70.488 C 243.677 70.727,243.621 71.149,243.619 71.425 C 243.617 71.701,243.550 72.057,243.470 72.217 C 243.390 72.376,243.345 72.540,243.369 72.581 C 243.393 72.622,243.365 72.773,243.306 72.917 C 243.247 73.060,243.181 73.271,243.159 73.385 C 243.137 73.500,243.073 73.609,243.018 73.628 C 242.962 73.648,242.917 73.725,242.917 73.801 C 242.917 73.968,242.479 74.830,242.370 74.878 C 242.327 74.898,242.292 74.968,242.292 75.035 C 242.291 75.102,242.169 75.297,242.019 75.469 C 241.869 75.641,241.642 75.945,241.513 76.146 C 240.931 77.057,238.268 79.063,237.642 79.063 C 237.564 79.063,237.500 79.109,237.500 79.167 C 237.500 79.224,237.392 79.271,237.260 79.271 C 237.129 79.271,236.976 79.314,236.922 79.367 C 236.867 79.420,236.589 79.475,236.302 79.489 C 236.016 79.503,235.734 79.547,235.677 79.588 C 235.620 79.628,235.045 79.689,234.399 79.722 C 233.753 79.755,233.167 79.819,233.097 79.865 C 232.921 79.978,221.497 79.986,221.042 79.873 C 220.841 79.823,220.326 79.756,219.896 79.723 C 219.466 79.691,219.036 79.623,218.939 79.572 C 218.843 79.521,218.672 79.479,218.559 79.479 C 218.160 79.479,218.096 75.635,218.273 62.206 L 218.367 54.984 225.824 55.031 C 229.926 55.056,233.882 55.107,234.617 55.143 " stroke="none" fill="#000000" fill-rule="evenodd"></path></g></svg>